<mxfile host="Electron" modified="2024-07-31T06:57:06.377Z" agent="Mozilla/5.0 (Windows NT 10.0; Win64; x64) AppleWebKit/537.36 (KHTML, like Gecko) draw.io/24.5.3 Chrome/124.0.6367.207 Electron/30.0.6 Safari/537.36" etag="bcUKr6LIEgBmRJFJhkLa" version="24.5.3" type="device" pages="7">
  <diagram name="Sequence diagram bus MMIO" id="Rym_sdq6DDQ0UCQm4w_h">
    <mxGraphModel dx="1595" dy="697" grid="0" gridSize="5" guides="1" tooltips="1" connect="1" arrows="1" fold="1" page="0" pageScale="1" pageWidth="850" pageHeight="1100" math="0" shadow="0">
      <root>
        <mxCell id="0" />
        <mxCell id="1" parent="0" />
        <mxCell id="eQnulzO2iz7nh-Uv_i4O-9" style="edgeStyle=orthogonalEdgeStyle;rounded=0;orthogonalLoop=1;jettySize=auto;html=1;" edge="1" parent="1" source="eQnulzO2iz7nh-Uv_i4O-1">
          <mxGeometry relative="1" as="geometry">
            <mxPoint y="1100" as="targetPoint" />
          </mxGeometry>
        </mxCell>
        <mxCell id="eQnulzO2iz7nh-Uv_i4O-1" value="Master" style="rounded=1;whiteSpace=wrap;html=1;" vertex="1" parent="1">
          <mxGeometry x="-60" y="80" width="120" height="60" as="geometry" />
        </mxCell>
        <mxCell id="eQnulzO2iz7nh-Uv_i4O-10" style="edgeStyle=orthogonalEdgeStyle;rounded=0;orthogonalLoop=1;jettySize=auto;html=1;" edge="1" parent="1" source="eQnulzO2iz7nh-Uv_i4O-2">
          <mxGeometry relative="1" as="geometry">
            <mxPoint x="340" y="1100" as="targetPoint" />
            <Array as="points">
              <mxPoint x="340" y="1075" />
            </Array>
          </mxGeometry>
        </mxCell>
        <mxCell id="eQnulzO2iz7nh-Uv_i4O-11" style="edgeStyle=orthogonalEdgeStyle;rounded=0;orthogonalLoop=1;jettySize=auto;html=1;" edge="1" parent="1" source="eQnulzO2iz7nh-Uv_i4O-2">
          <mxGeometry relative="1" as="geometry">
            <mxPoint x="520" y="1100" as="targetPoint" />
            <Array as="points">
              <mxPoint x="520" y="430" />
              <mxPoint x="520" y="430" />
            </Array>
          </mxGeometry>
        </mxCell>
        <mxCell id="eQnulzO2iz7nh-Uv_i4O-2" value="Bus" style="rounded=1;whiteSpace=wrap;html=1;" vertex="1" parent="1">
          <mxGeometry x="290" y="80" width="280" height="60" as="geometry" />
        </mxCell>
        <mxCell id="eQnulzO2iz7nh-Uv_i4O-12" style="edgeStyle=orthogonalEdgeStyle;rounded=0;orthogonalLoop=1;jettySize=auto;html=1;" edge="1" parent="1" source="eQnulzO2iz7nh-Uv_i4O-3">
          <mxGeometry relative="1" as="geometry">
            <mxPoint x="860" y="1100" as="targetPoint" />
          </mxGeometry>
        </mxCell>
        <mxCell id="eQnulzO2iz7nh-Uv_i4O-3" value="Slave" style="rounded=1;whiteSpace=wrap;html=1;" vertex="1" parent="1">
          <mxGeometry x="800" y="80" width="120" height="60" as="geometry" />
        </mxCell>
        <mxCell id="eQnulzO2iz7nh-Uv_i4O-7" value="Targets" style="text;html=1;align=center;verticalAlign=middle;resizable=0;points=[];autosize=1;strokeColor=none;fillColor=none;" vertex="1" parent="1">
          <mxGeometry x="310" y="115" width="60" height="30" as="geometry" />
        </mxCell>
        <mxCell id="eQnulzO2iz7nh-Uv_i4O-8" value="Initiators" style="text;html=1;align=center;verticalAlign=middle;resizable=0;points=[];autosize=1;strokeColor=none;fillColor=none;" vertex="1" parent="1">
          <mxGeometry x="488" y="115" width="65" height="30" as="geometry" />
        </mxCell>
        <mxCell id="eQnulzO2iz7nh-Uv_i4O-13" value="" style="endArrow=classic;html=1;rounded=0;" edge="1" parent="1">
          <mxGeometry width="50" height="50" relative="1" as="geometry">
            <mxPoint y="180" as="sourcePoint" />
            <mxPoint x="340" y="180" as="targetPoint" />
          </mxGeometry>
        </mxCell>
        <mxCell id="eQnulzO2iz7nh-Uv_i4O-14" value="IS.nb_trans-port_fw()" style="text;html=1;align=center;verticalAlign=middle;resizable=0;points=[];autosize=1;strokeColor=none;fillColor=none;" vertex="1" parent="1">
          <mxGeometry x="-140" y="165" width="135" height="30" as="geometry" />
        </mxCell>
        <mxCell id="eQnulzO2iz7nh-Uv_i4O-15" value="BEGIN_REQ" style="text;html=1;align=center;verticalAlign=middle;resizable=0;points=[];autosize=1;strokeColor=none;fillColor=none;" vertex="1" parent="1">
          <mxGeometry x="115" y="155" width="90" height="30" as="geometry" />
        </mxCell>
        <mxCell id="eQnulzO2iz7nh-Uv_i4O-41" value="cb::nb_transport_fw()" style="text;html=1;align=center;verticalAlign=middle;resizable=0;points=[];autosize=1;strokeColor=none;fillColor=none;" vertex="1" parent="1">
          <mxGeometry x="333" y="160" width="135" height="30" as="geometry" />
        </mxCell>
        <mxCell id="eQnulzO2iz7nh-Uv_i4O-42" value="m_peqts.notify()" style="text;html=1;align=center;verticalAlign=middle;resizable=0;points=[];autosize=1;strokeColor=none;fillColor=none;" vertex="1" parent="1">
          <mxGeometry x="335" y="200" width="105" height="30" as="geometry" />
        </mxCell>
        <mxCell id="eQnulzO2iz7nh-Uv_i4O-43" value="" style="endArrow=classic;html=1;rounded=0;" edge="1" parent="1">
          <mxGeometry width="50" height="50" relative="1" as="geometry">
            <mxPoint x="340" y="240" as="sourcePoint" />
            <mxPoint y="240" as="targetPoint" />
          </mxGeometry>
        </mxCell>
        <mxCell id="eQnulzO2iz7nh-Uv_i4O-44" value="status - &amp;gt; END_REQ" style="text;html=1;align=center;verticalAlign=middle;resizable=0;points=[];autosize=1;strokeColor=none;fillColor=none;" vertex="1" parent="1">
          <mxGeometry x="332.5" y="220" width="130" height="30" as="geometry" />
        </mxCell>
        <mxCell id="eQnulzO2iz7nh-Uv_i4O-45" value="END_REQ" style="text;html=1;align=center;verticalAlign=middle;resizable=0;points=[];autosize=1;strokeColor=none;fillColor=none;" vertex="1" parent="1">
          <mxGeometry x="120" y="213" width="80" height="30" as="geometry" />
        </mxCell>
        <mxCell id="eQnulzO2iz7nh-Uv_i4O-46" value="trigger e_foward_trans" style="text;html=1;align=center;verticalAlign=middle;resizable=0;points=[];autosize=1;strokeColor=none;fillColor=none;" vertex="1" parent="1">
          <mxGeometry x="332.5" y="243" width="140" height="30" as="geometry" />
        </mxCell>
        <mxCell id="eQnulzO2iz7nh-Uv_i4O-47" value="synchronizing clock cycles" style="text;html=1;align=center;verticalAlign=middle;resizable=0;points=[];autosize=1;strokeColor=none;fillColor=none;" vertex="1" parent="1">
          <mxGeometry x="332.5" y="270" width="160" height="30" as="geometry" />
        </mxCell>
        <mxCell id="eQnulzO2iz7nh-Uv_i4O-49" value="IS.nb_transport_fw()" style="text;html=1;align=center;verticalAlign=middle;resizable=0;points=[];autosize=1;strokeColor=none;fillColor=none;" vertex="1" parent="1">
          <mxGeometry x="395" y="300" width="130" height="30" as="geometry" />
        </mxCell>
        <mxCell id="eQnulzO2iz7nh-Uv_i4O-50" value="" style="endArrow=classic;html=1;rounded=0;dashed=1;" edge="1" parent="1">
          <mxGeometry width="50" height="50" relative="1" as="geometry">
            <mxPoint x="340" y="340" as="sourcePoint" />
            <mxPoint x="520" y="340" as="targetPoint" />
          </mxGeometry>
        </mxCell>
        <mxCell id="eQnulzO2iz7nh-Uv_i4O-51" value="current_trans = &amp;amp;trans" style="text;html=1;align=center;verticalAlign=middle;resizable=0;points=[];autosize=1;strokeColor=none;fillColor=none;" vertex="1" parent="1">
          <mxGeometry x="355.5" y="315" width="140" height="30" as="geometry" />
        </mxCell>
        <mxCell id="eQnulzO2iz7nh-Uv_i4O-52" value="" style="endArrow=classic;html=1;rounded=0;" edge="1" parent="1">
          <mxGeometry width="50" height="50" relative="1" as="geometry">
            <mxPoint x="520" y="340" as="sourcePoint" />
            <mxPoint x="860" y="340" as="targetPoint" />
          </mxGeometry>
        </mxCell>
        <mxCell id="eQnulzO2iz7nh-Uv_i4O-53" value="BEGIN_REQ" style="text;html=1;align=center;verticalAlign=middle;resizable=0;points=[];autosize=1;strokeColor=none;fillColor=none;" vertex="1" parent="1">
          <mxGeometry x="640" y="315" width="90" height="30" as="geometry" />
        </mxCell>
        <mxCell id="eQnulzO2iz7nh-Uv_i4O-55" value="cb::nb_transport_fw()" style="text;html=1;align=center;verticalAlign=middle;resizable=0;points=[];autosize=1;strokeColor=none;fillColor=none;" vertex="1" parent="1">
          <mxGeometry x="852.5" y="325" width="135" height="30" as="geometry" />
        </mxCell>
        <mxCell id="eQnulzO2iz7nh-Uv_i4O-56" value="m_peq.notify()" style="text;html=1;align=center;verticalAlign=middle;resizable=0;points=[];autosize=1;strokeColor=none;fillColor=none;" vertex="1" parent="1">
          <mxGeometry x="856" y="345" width="100" height="30" as="geometry" />
        </mxCell>
        <mxCell id="eQnulzO2iz7nh-Uv_i4O-57" value="status - &amp;gt; END_REQ" style="text;html=1;align=center;verticalAlign=middle;resizable=0;points=[];autosize=1;strokeColor=none;fillColor=none;" vertex="1" parent="1">
          <mxGeometry x="856" y="368" width="130" height="30" as="geometry" />
        </mxCell>
        <mxCell id="eQnulzO2iz7nh-Uv_i4O-58" value="" style="endArrow=classic;html=1;rounded=0;" edge="1" parent="1">
          <mxGeometry width="50" height="50" relative="1" as="geometry">
            <mxPoint x="860" y="420" as="sourcePoint" />
            <mxPoint x="520" y="420" as="targetPoint" />
          </mxGeometry>
        </mxCell>
        <mxCell id="eQnulzO2iz7nh-Uv_i4O-59" value="Ts.nb_transport_bw()" style="text;html=1;align=center;verticalAlign=middle;resizable=0;points=[];autosize=1;strokeColor=none;fillColor=none;" vertex="1" parent="1">
          <mxGeometry x="852.5" y="405" width="135" height="30" as="geometry" />
        </mxCell>
        <mxCell id="eQnulzO2iz7nh-Uv_i4O-60" value="END_REQ" style="text;html=1;align=center;verticalAlign=middle;resizable=0;points=[];autosize=1;strokeColor=none;fillColor=none;" vertex="1" parent="1">
          <mxGeometry x="645" y="393" width="80" height="30" as="geometry" />
        </mxCell>
        <mxCell id="eQnulzO2iz7nh-Uv_i4O-61" value="cb::nb_transport_bw()" style="text;html=1;align=center;verticalAlign=middle;resizable=0;points=[];autosize=1;strokeColor=none;fillColor=none;" vertex="1" parent="1">
          <mxGeometry x="388" y="398" width="140" height="30" as="geometry" />
        </mxCell>
        <mxCell id="eQnulzO2iz7nh-Uv_i4O-62" value="m_peqIs.notify()" style="text;html=1;align=center;verticalAlign=middle;resizable=0;points=[];autosize=1;strokeColor=none;fillColor=none;" vertex="1" parent="1">
          <mxGeometry x="395" y="420" width="105" height="30" as="geometry" />
        </mxCell>
        <mxCell id="eQnulzO2iz7nh-Uv_i4O-65" value="" style="endArrow=classic;html=1;rounded=0;dashed=1;fillColor=#e51400;strokeColor=#B20000;" edge="1" parent="1">
          <mxGeometry width="50" height="50" relative="1" as="geometry">
            <mxPoint x="260" y="250" as="sourcePoint" />
            <mxPoint x="260" y="660" as="targetPoint" />
          </mxGeometry>
        </mxCell>
        <mxCell id="eQnulzO2iz7nh-Uv_i4O-66" value="&lt;font color=&quot;#ff0000&quot;&gt;Synchronization with clock cycles&lt;br&gt;1byte data = 1 clock cycle&lt;/font&gt;" style="text;html=1;align=center;verticalAlign=middle;resizable=0;points=[];autosize=1;strokeColor=none;fillColor=none;" vertex="1" parent="1">
          <mxGeometry x="55" y="305" width="200" height="45" as="geometry" />
        </mxCell>
        <mxCell id="eQnulzO2iz7nh-Uv_i4O-77" value="m_peq.&lt;span class=&quot;hljs-built_in&quot;&gt;notify&lt;/span&gt;()" style="text;whiteSpace=wrap;html=1;" vertex="1" parent="1">
          <mxGeometry x="865" y="435" width="100" height="35" as="geometry" />
        </mxCell>
        <mxCell id="eQnulzO2iz7nh-Uv_i4O-78" value="status - &amp;gt; Begin_RESP" style="text;html=1;align=center;verticalAlign=middle;resizable=0;points=[];autosize=1;strokeColor=none;fillColor=none;" vertex="1" parent="1">
          <mxGeometry x="856" y="465" width="145" height="30" as="geometry" />
        </mxCell>
        <mxCell id="eQnulzO2iz7nh-Uv_i4O-79" value="Ts.nb_transport_bw()" style="text;html=1;align=center;verticalAlign=middle;resizable=0;points=[];autosize=1;strokeColor=none;fillColor=none;" vertex="1" parent="1">
          <mxGeometry x="853.5" y="495" width="135" height="30" as="geometry" />
        </mxCell>
        <mxCell id="eQnulzO2iz7nh-Uv_i4O-80" value="cb::nb_transport_bw()" style="text;html=1;align=center;verticalAlign=middle;resizable=0;points=[];autosize=1;strokeColor=none;fillColor=none;" vertex="1" parent="1">
          <mxGeometry x="385" y="550" width="140" height="30" as="geometry" />
        </mxCell>
        <mxCell id="eQnulzO2iz7nh-Uv_i4O-81" value="m_peqIs.notify()" style="text;html=1;align=center;verticalAlign=middle;resizable=0;points=[];autosize=1;strokeColor=none;fillColor=none;" vertex="1" parent="1">
          <mxGeometry x="387.5" y="570" width="105" height="30" as="geometry" />
        </mxCell>
        <mxCell id="eQnulzO2iz7nh-Uv_i4O-82" value="" style="endArrow=classic;html=1;rounded=0;" edge="1" parent="1">
          <mxGeometry width="50" height="50" relative="1" as="geometry">
            <mxPoint x="860" y="540" as="sourcePoint" />
            <mxPoint x="520" y="540" as="targetPoint" />
          </mxGeometry>
        </mxCell>
        <mxCell id="eQnulzO2iz7nh-Uv_i4O-83" value="BEGIN_RESP" style="text;html=1;align=center;verticalAlign=middle;resizable=0;points=[];autosize=1;strokeColor=none;fillColor=none;" vertex="1" parent="1">
          <mxGeometry x="635" y="513" width="100" height="30" as="geometry" />
        </mxCell>
        <mxCell id="eQnulzO2iz7nh-Uv_i4O-87" value="status - &amp;gt; BEGIN_RESP" style="text;html=1;align=center;verticalAlign=middle;resizable=0;points=[];autosize=1;strokeColor=none;fillColor=none;" vertex="1" parent="1">
          <mxGeometry x="333" y="623" width="150" height="30" as="geometry" />
        </mxCell>
        <mxCell id="eQnulzO2iz7nh-Uv_i4O-88" value="TS.nb_transport_bw()" style="text;html=1;align=center;verticalAlign=middle;resizable=0;points=[];autosize=1;strokeColor=none;fillColor=none;" vertex="1" parent="1">
          <mxGeometry x="333" y="650" width="135" height="30" as="geometry" />
        </mxCell>
        <mxCell id="eQnulzO2iz7nh-Uv_i4O-89" value="" style="endArrow=classic;html=1;rounded=0;" edge="1" parent="1">
          <mxGeometry width="50" height="50" relative="1" as="geometry">
            <mxPoint x="340" y="680" as="sourcePoint" />
            <mxPoint y="680" as="targetPoint" />
          </mxGeometry>
        </mxCell>
        <mxCell id="eQnulzO2iz7nh-Uv_i4O-90" value="BEGIN_RESP" style="text;html=1;align=center;verticalAlign=middle;resizable=0;points=[];autosize=1;strokeColor=none;fillColor=none;" vertex="1" parent="1">
          <mxGeometry x="110" y="653" width="100" height="30" as="geometry" />
        </mxCell>
        <mxCell id="eQnulzO2iz7nh-Uv_i4O-91" value="cb::nb_transport_bw()" style="text;html=1;align=center;verticalAlign=middle;resizable=0;points=[];autosize=1;strokeColor=none;fillColor=none;" vertex="1" parent="1">
          <mxGeometry x="-150" y="230" width="140" height="30" as="geometry" />
        </mxCell>
        <mxCell id="eQnulzO2iz7nh-Uv_i4O-92" value="m_peq.notify()" style="text;html=1;align=center;verticalAlign=middle;resizable=0;points=[];autosize=1;strokeColor=none;fillColor=none;" vertex="1" parent="1">
          <mxGeometry x="-130" y="260" width="100" height="30" as="geometry" />
        </mxCell>
        <mxCell id="eQnulzO2iz7nh-Uv_i4O-93" value="cb::nb_transport_bw()" style="text;html=1;align=center;verticalAlign=middle;resizable=0;points=[];autosize=1;strokeColor=none;fillColor=none;" vertex="1" parent="1">
          <mxGeometry x="-140" y="665" width="140" height="30" as="geometry" />
        </mxCell>
        <mxCell id="eQnulzO2iz7nh-Uv_i4O-94" value="m_peq.notify()" style="text;html=1;align=center;verticalAlign=middle;resizable=0;points=[];autosize=1;strokeColor=none;fillColor=none;" vertex="1" parent="1">
          <mxGeometry x="-120" y="695" width="100" height="30" as="geometry" />
        </mxCell>
        <mxCell id="eQnulzO2iz7nh-Uv_i4O-95" value="Get data from trans&amp;nbsp;&lt;div&gt;if using transaction read&lt;/div&gt;" style="text;html=1;align=center;verticalAlign=middle;resizable=0;points=[];autosize=1;strokeColor=none;fillColor=none;" vertex="1" parent="1">
          <mxGeometry x="-155" y="725" width="150" height="45" as="geometry" />
        </mxCell>
        <mxCell id="eQnulzO2iz7nh-Uv_i4O-96" value="status - &amp;gt; END_RESP" style="text;html=1;align=center;verticalAlign=middle;resizable=0;points=[];autosize=1;strokeColor=none;fillColor=none;" vertex="1" parent="1">
          <mxGeometry x="-142.5" y="800" width="140" height="30" as="geometry" />
        </mxCell>
        <mxCell id="eQnulzO2iz7nh-Uv_i4O-97" value="IS.nb_transport_fw()" style="text;html=1;align=center;verticalAlign=middle;resizable=0;points=[];autosize=1;strokeColor=none;fillColor=none;" vertex="1" parent="1">
          <mxGeometry x="-137" y="830" width="130" height="30" as="geometry" />
        </mxCell>
        <mxCell id="eQnulzO2iz7nh-Uv_i4O-98" value="" style="endArrow=classic;html=1;rounded=0;" edge="1" parent="1">
          <mxGeometry width="50" height="50" relative="1" as="geometry">
            <mxPoint y="860" as="sourcePoint" />
            <mxPoint x="335" y="860" as="targetPoint" />
          </mxGeometry>
        </mxCell>
        <mxCell id="eQnulzO2iz7nh-Uv_i4O-99" value="END_RESP" style="text;html=1;align=center;verticalAlign=middle;resizable=0;points=[];autosize=1;strokeColor=none;fillColor=none;" vertex="1" parent="1">
          <mxGeometry x="117.5" y="830" width="85" height="30" as="geometry" />
        </mxCell>
        <mxCell id="eQnulzO2iz7nh-Uv_i4O-100" value="&lt;font color=&quot;#ff0000&quot;&gt;No timing&lt;/font&gt;" style="text;html=1;align=center;verticalAlign=middle;resizable=0;points=[];autosize=1;strokeColor=none;fillColor=none;" vertex="1" parent="1">
          <mxGeometry x="30" y="190" width="70" height="30" as="geometry" />
        </mxCell>
        <mxCell id="eQnulzO2iz7nh-Uv_i4O-101" value="cb::nb_transport_fw()" style="text;html=1;align=center;verticalAlign=middle;resizable=0;points=[];autosize=1;strokeColor=none;fillColor=none;" vertex="1" parent="1">
          <mxGeometry x="336" y="845" width="135" height="30" as="geometry" />
        </mxCell>
        <mxCell id="eQnulzO2iz7nh-Uv_i4O-102" value="m_peqts.notify()" style="text;html=1;align=center;verticalAlign=middle;resizable=0;points=[];autosize=1;strokeColor=none;fillColor=none;" vertex="1" parent="1">
          <mxGeometry x="338" y="870" width="105" height="30" as="geometry" />
        </mxCell>
        <mxCell id="eQnulzO2iz7nh-Uv_i4O-103" value="status - &amp;gt; END_RESP" style="text;html=1;align=center;verticalAlign=middle;resizable=0;points=[];autosize=1;strokeColor=none;fillColor=none;" vertex="1" parent="1">
          <mxGeometry x="385" y="940" width="140" height="30" as="geometry" />
        </mxCell>
        <mxCell id="eQnulzO2iz7nh-Uv_i4O-104" value="IS.nb_transport_fw()" style="text;html=1;align=center;verticalAlign=middle;resizable=0;points=[];autosize=1;strokeColor=none;fillColor=none;" vertex="1" parent="1">
          <mxGeometry x="393.5" y="965" width="130" height="30" as="geometry" />
        </mxCell>
        <mxCell id="eQnulzO2iz7nh-Uv_i4O-105" value="" style="endArrow=classic;html=1;rounded=0;" edge="1" parent="1">
          <mxGeometry width="50" height="50" relative="1" as="geometry">
            <mxPoint x="520" y="980" as="sourcePoint" />
            <mxPoint x="860" y="980" as="targetPoint" />
          </mxGeometry>
        </mxCell>
        <mxCell id="eQnulzO2iz7nh-Uv_i4O-106" value="END_RESP" style="text;html=1;align=center;verticalAlign=middle;resizable=0;points=[];autosize=1;strokeColor=none;fillColor=none;" vertex="1" parent="1">
          <mxGeometry x="635" y="950" width="85" height="30" as="geometry" />
        </mxCell>
        <mxCell id="eQnulzO2iz7nh-Uv_i4O-108" value="m_peq.&lt;span class=&quot;hljs-built_in&quot;&gt;notify&lt;/span&gt;()" style="text;whiteSpace=wrap;html=1;" vertex="1" parent="1">
          <mxGeometry x="875" y="995" width="100" height="35" as="geometry" />
        </mxCell>
        <mxCell id="eQnulzO2iz7nh-Uv_i4O-109" value="&lt;font color=&quot;#ff0000&quot;&gt;Notifying transaction complete&lt;/font&gt;" style="text;whiteSpace=wrap;html=1;" vertex="1" parent="1">
          <mxGeometry x="875" y="1060" width="140" height="35" as="geometry" />
        </mxCell>
        <mxCell id="eQnulzO2iz7nh-Uv_i4O-110" value="&lt;font color=&quot;#ff0000&quot;&gt;No timing&lt;/font&gt;" style="text;html=1;align=center;verticalAlign=middle;resizable=0;points=[];autosize=1;strokeColor=none;fillColor=none;" vertex="1" parent="1">
          <mxGeometry x="35" y="750" width="70" height="30" as="geometry" />
        </mxCell>
        <mxCell id="eQnulzO2iz7nh-Uv_i4O-113" value="&lt;font color=&quot;#ff0000&quot;&gt;No timing&lt;/font&gt;" style="text;html=1;align=center;verticalAlign=middle;resizable=0;points=[];autosize=1;strokeColor=none;fillColor=none;" vertex="1" parent="1">
          <mxGeometry x="540" y="775" width="70" height="30" as="geometry" />
        </mxCell>
        <mxCell id="eQnulzO2iz7nh-Uv_i4O-115" value="&lt;font color=&quot;#ff0000&quot;&gt;notifying request foward&lt;/font&gt;&lt;div&gt;&lt;font color=&quot;#ff0000&quot;&gt;&amp;nbsp;transaction success&lt;/font&gt;&lt;/div&gt;" style="text;html=1;align=center;verticalAlign=middle;resizable=0;points=[];autosize=1;strokeColor=none;fillColor=none;" vertex="1" parent="1">
          <mxGeometry x="375" y="440" width="150" height="45" as="geometry" />
        </mxCell>
        <mxCell id="eQnulzO2iz7nh-Uv_i4O-116" value="&lt;font color=&quot;#ff0000&quot;&gt;notifying request bus&lt;/font&gt;&lt;div&gt;&lt;font color=&quot;#ff0000&quot;&gt;&amp;nbsp;transaction success&lt;/font&gt;&lt;/div&gt;" style="text;html=1;align=center;verticalAlign=middle;resizable=0;points=[];autosize=1;strokeColor=none;fillColor=none;" vertex="1" parent="1">
          <mxGeometry x="-142.5" y="285" width="130" height="45" as="geometry" />
        </mxCell>
        <mxCell id="eQnulzO2iz7nh-Uv_i4O-117" value="&lt;font color=&quot;#ff0000&quot;&gt;notifying request foward&lt;/font&gt;&lt;div&gt;&lt;font color=&quot;#ff0000&quot;&gt;&amp;nbsp;transaction respond success&lt;/font&gt;&lt;/div&gt;" style="text;html=1;align=center;verticalAlign=middle;resizable=0;points=[];autosize=1;strokeColor=none;fillColor=none;" vertex="1" parent="1">
          <mxGeometry x="335" y="900" width="175" height="45" as="geometry" />
        </mxCell>
        <mxCell id="eQnulzO2iz7nh-Uv_i4O-118" value="Delete trans" style="text;html=1;align=center;verticalAlign=middle;resizable=0;points=[];autosize=1;strokeColor=none;fillColor=none;" vertex="1" parent="1">
          <mxGeometry x="865" y="1028" width="85" height="30" as="geometry" />
        </mxCell>
        <mxCell id="eQnulzO2iz7nh-Uv_i4O-120" value="&lt;font color=&quot;#ff0000&quot;&gt;notifying foward&lt;/font&gt;&lt;div&gt;&lt;font color=&quot;#ff0000&quot;&gt;&amp;nbsp;transaction to slave&lt;/font&gt;&lt;/div&gt;" style="text;html=1;align=center;verticalAlign=middle;resizable=0;points=[];autosize=1;strokeColor=none;fillColor=none;" vertex="1" parent="1">
          <mxGeometry x="390" y="353" width="130" height="45" as="geometry" />
        </mxCell>
        <mxCell id="eQnulzO2iz7nh-Uv_i4O-121" value="&lt;font color=&quot;#ff3333&quot;&gt;In this time, bus is locked,&amp;nbsp;&lt;/font&gt;&lt;div&gt;&lt;font color=&quot;#ff3333&quot;&gt;if other&amp;nbsp;&lt;/font&gt;&lt;span style=&quot;color: rgb(255, 51, 51); background-color: initial;&quot;&gt;transactions request,&amp;nbsp;&lt;/span&gt;&lt;div&gt;&lt;font color=&quot;#ff3333&quot;&gt;bus returns ignore transaction&amp;nbsp;&amp;nbsp;&lt;/font&gt;&lt;/div&gt;&lt;/div&gt;" style="text;html=1;align=center;verticalAlign=middle;resizable=0;points=[];autosize=1;strokeColor=none;fillColor=none;" vertex="1" parent="1">
          <mxGeometry x="67.5" y="440" width="185" height="60" as="geometry" />
        </mxCell>
        <mxCell id="eQnulzO2iz7nh-Uv_i4O-122" value="current_trans = nullptr" style="text;html=1;align=center;verticalAlign=middle;resizable=0;points=[];autosize=1;strokeColor=none;fillColor=none;" vertex="1" parent="1">
          <mxGeometry x="375" y="990" width="140" height="30" as="geometry" />
        </mxCell>
        <mxCell id="eQnulzO2iz7nh-Uv_i4O-123" value="&lt;font color=&quot;#ff0000&quot;&gt;Lock Bus&lt;/font&gt;" style="text;html=1;align=center;verticalAlign=middle;resizable=0;points=[];autosize=1;strokeColor=none;fillColor=none;" vertex="1" parent="1">
          <mxGeometry x="390" y="180" width="70" height="30" as="geometry" />
        </mxCell>
        <mxCell id="eQnulzO2iz7nh-Uv_i4O-124" value="&lt;font color=&quot;#ff0000&quot;&gt;Release Bus&lt;/font&gt;" style="text;html=1;align=center;verticalAlign=middle;resizable=0;points=[];autosize=1;strokeColor=none;fillColor=none;" vertex="1" parent="1">
          <mxGeometry x="387.5" y="1030" width="90" height="30" as="geometry" />
        </mxCell>
        <mxCell id="eQnulzO2iz7nh-Uv_i4O-125" value="cb::nb_transport_fw()" style="text;html=1;align=center;verticalAlign=middle;resizable=0;points=[];autosize=1;strokeColor=none;fillColor=none;" vertex="1" parent="1">
          <mxGeometry x="865" y="970" width="135" height="30" as="geometry" />
        </mxCell>
      </root>
    </mxGraphModel>
  </diagram>
  <diagram id="rtpMnc5N_y_yxXowCZKX" name="BusMMIOAT2Phases">
    <mxGraphModel dx="2849" dy="1594" grid="0" gridSize="7" guides="1" tooltips="1" connect="1" arrows="1" fold="1" page="0" pageScale="1" pageWidth="850" pageHeight="1100" math="0" shadow="0">
      <root>
        <mxCell id="0" />
        <mxCell id="1" parent="0" />
        <mxCell id="Io4mGb1DfQ4p-z2lR93R-6" style="edgeStyle=orthogonalEdgeStyle;rounded=0;orthogonalLoop=1;jettySize=auto;html=1;strokeWidth=2;" parent="1" source="PUB-NZs17sW67Y5QM5I0-1" edge="1">
          <mxGeometry relative="1" as="geometry">
            <mxPoint x="-275" y="644" as="targetPoint" />
          </mxGeometry>
        </mxCell>
        <mxCell id="PUB-NZs17sW67Y5QM5I0-1" value="&lt;b&gt;&lt;font style=&quot;font-size: 22px;&quot;&gt;Master&lt;/font&gt;&lt;/b&gt;" style="rounded=1;whiteSpace=wrap;html=1;fillColor=#dae8fc;gradientColor=#7ea6e0;strokeColor=#6c8ebf;strokeWidth=2;" parent="1" vertex="1">
          <mxGeometry x="-335" y="-95" width="120" height="60" as="geometry" />
        </mxCell>
        <mxCell id="PUB-NZs17sW67Y5QM5I0-2" value="&lt;b&gt;&lt;font style=&quot;font-size: 22px;&quot;&gt;Bus MMIO&lt;/font&gt;&lt;/b&gt;" style="rounded=1;whiteSpace=wrap;html=1;fillColor=#d5e8d4;strokeColor=#82b366;gradientColor=#97d077;strokeWidth=2;" parent="1" vertex="1">
          <mxGeometry x="5" y="-95" width="410" height="60" as="geometry" />
        </mxCell>
        <mxCell id="Io4mGb1DfQ4p-z2lR93R-11" style="edgeStyle=orthogonalEdgeStyle;rounded=0;orthogonalLoop=1;jettySize=auto;html=1;strokeWidth=2;" parent="1" source="PUB-NZs17sW67Y5QM5I0-3" edge="1">
          <mxGeometry relative="1" as="geometry">
            <mxPoint x="704" y="644" as="targetPoint" />
            <Array as="points">
              <mxPoint x="704" y="616" />
            </Array>
          </mxGeometry>
        </mxCell>
        <mxCell id="PUB-NZs17sW67Y5QM5I0-3" value="&lt;b&gt;&lt;font style=&quot;font-size: 22px;&quot;&gt;Slave&lt;/font&gt;&lt;/b&gt;" style="rounded=1;whiteSpace=wrap;html=1;fillColor=#fff2cc;gradientColor=#ffd966;strokeColor=#d6b656;strokeWidth=2;" parent="1" vertex="1">
          <mxGeometry x="644" y="-95" width="120" height="60" as="geometry" />
        </mxCell>
        <mxCell id="Io4mGb1DfQ4p-z2lR93R-1" value="&lt;b&gt;&lt;font style=&quot;font-size: 22px;&quot;&gt;Targets&lt;/font&gt;&lt;/b&gt;" style="text;html=1;align=center;verticalAlign=middle;resizable=0;points=[];autosize=1;strokeColor=none;fillColor=none;strokeWidth=2;" parent="1" vertex="1">
          <mxGeometry x="18" y="-73" width="96" height="38" as="geometry" />
        </mxCell>
        <mxCell id="Io4mGb1DfQ4p-z2lR93R-2" value="&lt;b&gt;&lt;font style=&quot;font-size: 22px;&quot;&gt;Initiator&lt;/font&gt;&lt;/b&gt;" style="text;html=1;align=center;verticalAlign=middle;resizable=0;points=[];autosize=1;strokeColor=none;fillColor=none;strokeWidth=2;" parent="1" vertex="1">
          <mxGeometry x="310" y="-73" width="99" height="38" as="geometry" />
        </mxCell>
        <mxCell id="Io4mGb1DfQ4p-z2lR93R-8" value="" style="endArrow=classic;html=1;rounded=0;exitX=0.142;exitY=1.006;exitDx=0;exitDy=0;exitPerimeter=0;strokeWidth=2;" parent="1" source="PUB-NZs17sW67Y5QM5I0-2" edge="1">
          <mxGeometry width="50" height="50" relative="1" as="geometry">
            <mxPoint x="63" y="-21" as="sourcePoint" />
            <mxPoint x="63" y="644" as="targetPoint" />
          </mxGeometry>
        </mxCell>
        <mxCell id="Io4mGb1DfQ4p-z2lR93R-9" value="" style="endArrow=classic;html=1;rounded=0;exitX=0.872;exitY=1.024;exitDx=0;exitDy=0;exitPerimeter=0;strokeWidth=2;" parent="1" source="PUB-NZs17sW67Y5QM5I0-2" edge="1">
          <mxGeometry width="50" height="50" relative="1" as="geometry">
            <mxPoint x="357" y="14" as="sourcePoint" />
            <mxPoint x="364" y="644" as="targetPoint" />
          </mxGeometry>
        </mxCell>
        <mxCell id="Io4mGb1DfQ4p-z2lR93R-12" value="&lt;b&gt;&lt;font style=&quot;font-size: 22px;&quot;&gt;socket.nb_transport_fw(trans,phase)&lt;/font&gt;&lt;/b&gt;" style="text;html=1;align=center;verticalAlign=middle;resizable=0;points=[];autosize=1;strokeColor=none;fillColor=none;strokeWidth=2;" parent="1" vertex="1">
          <mxGeometry x="-689" y="27" width="404" height="38" as="geometry" />
        </mxCell>
        <mxCell id="Io4mGb1DfQ4p-z2lR93R-15" value="&lt;font style=&quot;font-size: 22px;&quot;&gt;phase = tlm::BEGIN_REQ&lt;/font&gt;" style="text;html=1;align=center;verticalAlign=middle;resizable=0;points=[];autosize=1;strokeColor=none;fillColor=none;strokeWidth=2;" parent="1" vertex="1">
          <mxGeometry x="-549.5" y="-2" width="273" height="38" as="geometry" />
        </mxCell>
        <mxCell id="Io4mGb1DfQ4p-z2lR93R-16" value="" style="endArrow=classic;html=1;rounded=0;strokeWidth=2;" parent="1" edge="1">
          <mxGeometry width="50" height="50" relative="1" as="geometry">
            <mxPoint x="-273" y="84" as="sourcePoint" />
            <mxPoint x="63" y="84" as="targetPoint" />
          </mxGeometry>
        </mxCell>
        <mxCell id="Io4mGb1DfQ4p-z2lR93R-17" value="&lt;font style=&quot;font-size: 22px;&quot;&gt;BEGIN_REQ&lt;/font&gt;" style="text;html=1;align=center;verticalAlign=middle;resizable=0;points=[];autosize=1;strokeColor=none;fillColor=none;strokeWidth=2;" parent="1" vertex="1">
          <mxGeometry x="-181" y="44" width="146" height="38" as="geometry" />
        </mxCell>
        <mxCell id="Io4mGb1DfQ4p-z2lR93R-21" value="" style="endArrow=classic;html=1;rounded=0;dashed=1;strokeWidth=2;" parent="1" edge="1">
          <mxGeometry width="50" height="50" relative="1" as="geometry">
            <mxPoint x="63" y="112" as="sourcePoint" />
            <mxPoint x="63" y="210" as="targetPoint" />
            <Array as="points">
              <mxPoint x="112" y="112" />
              <mxPoint x="112" y="210" />
            </Array>
          </mxGeometry>
        </mxCell>
        <mxCell id="Io4mGb1DfQ4p-z2lR93R-22" value="&lt;font style=&quot;font-size: 22px;&quot;&gt;Clock cycles synchronization&lt;/font&gt;&lt;div style=&quot;font-size: 22px;&quot;&gt;&lt;font style=&quot;font-size: 22px;&quot;&gt;Address phase + data phase&lt;/font&gt;&lt;/div&gt;" style="text;html=1;align=center;verticalAlign=middle;resizable=0;points=[];autosize=1;strokeColor=none;fillColor=none;strokeWidth=2;" parent="1" vertex="1">
          <mxGeometry x="65" y="30.5" width="299" height="65" as="geometry" />
        </mxCell>
        <mxCell id="sd7ySUzB81SbC4Vza9P3-1" value="" style="endArrow=classic;html=1;rounded=0;dashed=1;strokeWidth=2;" parent="1" edge="1">
          <mxGeometry width="50" height="50" relative="1" as="geometry">
            <mxPoint x="63" y="280" as="sourcePoint" />
            <mxPoint x="364" y="280" as="targetPoint" />
          </mxGeometry>
        </mxCell>
        <mxCell id="sd7ySUzB81SbC4Vza9P3-2" value="&lt;b&gt;&lt;font style=&quot;font-size: 22px;&quot;&gt;IS.nb_transport_fw&lt;/font&gt;&lt;/b&gt;" style="text;html=1;align=center;verticalAlign=middle;resizable=0;points=[];autosize=1;strokeColor=none;fillColor=none;strokeWidth=2;" parent="1" vertex="1">
          <mxGeometry x="144" y="231" width="217" height="42" as="geometry" />
        </mxCell>
        <mxCell id="sd7ySUzB81SbC4Vza9P3-3" value="&lt;font style=&quot;font-size: 22px;&quot;&gt;phase = tlm::BEGIN_REQ&lt;/font&gt;" style="text;html=1;align=center;verticalAlign=middle;resizable=0;points=[];autosize=1;strokeColor=none;fillColor=none;strokeWidth=2;" parent="1" vertex="1">
          <mxGeometry x="88" y="203" width="273" height="42" as="geometry" />
        </mxCell>
        <mxCell id="sd7ySUzB81SbC4Vza9P3-4" value="" style="endArrow=classic;html=1;rounded=0;strokeWidth=2;" parent="1" edge="1">
          <mxGeometry width="50" height="50" relative="1" as="geometry">
            <mxPoint x="364" y="308" as="sourcePoint" />
            <mxPoint x="707" y="308" as="targetPoint" />
          </mxGeometry>
        </mxCell>
        <mxCell id="sd7ySUzB81SbC4Vza9P3-6" value="&lt;font style=&quot;font-size: 22px;&quot;&gt;BEGIN_REQ&lt;/font&gt;" style="text;html=1;align=center;verticalAlign=middle;resizable=0;points=[];autosize=1;strokeColor=none;fillColor=none;strokeWidth=2;" parent="1" vertex="1">
          <mxGeometry x="462" y="270" width="147" height="42" as="geometry" />
        </mxCell>
        <mxCell id="sd7ySUzB81SbC4Vza9P3-7" value="" style="endArrow=classic;html=1;rounded=0;dashed=1;strokeWidth=2;" parent="1" edge="1">
          <mxGeometry width="50" height="50" relative="1" as="geometry">
            <mxPoint x="707" y="322" as="sourcePoint" />
            <mxPoint x="707" y="392" as="targetPoint" />
            <Array as="points">
              <mxPoint x="756" y="322" />
              <mxPoint x="756" y="392" />
            </Array>
          </mxGeometry>
        </mxCell>
        <mxCell id="sd7ySUzB81SbC4Vza9P3-10" value="&lt;font style=&quot;font-size: 22px;&quot;&gt;Handling data&lt;/font&gt;" style="text;html=1;align=center;verticalAlign=middle;resizable=0;points=[];autosize=1;strokeColor=none;fillColor=none;strokeWidth=2;" parent="1" vertex="1">
          <mxGeometry x="766.5" y="329" width="154" height="42" as="geometry" />
        </mxCell>
        <mxCell id="sd7ySUzB81SbC4Vza9P3-11" value="" style="endArrow=classic;html=1;rounded=0;strokeWidth=2;" parent="1" edge="1">
          <mxGeometry width="50" height="50" relative="1" as="geometry">
            <mxPoint x="700" y="448" as="sourcePoint" />
            <mxPoint x="364" y="448" as="targetPoint" />
          </mxGeometry>
        </mxCell>
        <mxCell id="sd7ySUzB81SbC4Vza9P3-12" value="&lt;b&gt;&lt;font style=&quot;font-size: 22px;&quot;&gt;socket.nb_transport_bw&lt;/font&gt;&lt;/b&gt;" style="text;html=1;align=center;verticalAlign=middle;resizable=0;points=[];autosize=1;strokeColor=none;fillColor=none;strokeWidth=2;" parent="1" vertex="1">
          <mxGeometry x="707" y="431" width="273" height="42" as="geometry" />
        </mxCell>
        <mxCell id="sd7ySUzB81SbC4Vza9P3-13" value="&lt;font style=&quot;font-size: 22px;&quot;&gt;phase = tlm::END_REQ&lt;/font&gt;" style="text;html=1;align=center;verticalAlign=middle;resizable=0;points=[];autosize=1;strokeColor=none;fillColor=none;strokeWidth=2;" parent="1" vertex="1">
          <mxGeometry x="717.5" y="403" width="252" height="42" as="geometry" />
        </mxCell>
        <mxCell id="sd7ySUzB81SbC4Vza9P3-14" value="&lt;font style=&quot;font-size: 22px;&quot;&gt;END_REQ&lt;/font&gt;" style="text;html=1;align=center;verticalAlign=middle;resizable=0;points=[];autosize=1;strokeColor=none;fillColor=none;strokeWidth=2;" parent="1" vertex="1">
          <mxGeometry x="473" y="410" width="126" height="42" as="geometry" />
        </mxCell>
        <mxCell id="sd7ySUzB81SbC4Vza9P3-15" value="" style="endArrow=classic;html=1;rounded=0;dashed=1;strokeWidth=2;" parent="1" edge="1">
          <mxGeometry width="50" height="50" relative="1" as="geometry">
            <mxPoint x="364" y="448" as="sourcePoint" />
            <mxPoint x="63" y="448" as="targetPoint" />
          </mxGeometry>
        </mxCell>
        <mxCell id="sd7ySUzB81SbC4Vza9P3-17" value="&lt;font style=&quot;font-size: 15px;&quot;&gt;phase = tlm::END_REQ&lt;/font&gt;" style="text;html=1;align=center;verticalAlign=middle;resizable=0;points=[];autosize=1;strokeColor=none;fillColor=none;strokeWidth=2;" parent="1" vertex="1">
          <mxGeometry x="70" y="392" width="175" height="35" as="geometry" />
        </mxCell>
        <mxCell id="sd7ySUzB81SbC4Vza9P3-18" value="&lt;b&gt;&lt;font style=&quot;font-size: 15px;&quot;&gt;TS.nb_transport_bw(trans,phase)&lt;/font&gt;&lt;/b&gt;" style="text;html=1;align=center;verticalAlign=middle;resizable=0;points=[];autosize=1;strokeColor=none;fillColor=none;strokeWidth=2;" parent="1" vertex="1">
          <mxGeometry x="63" y="413" width="259" height="35" as="geometry" />
        </mxCell>
        <mxCell id="sd7ySUzB81SbC4Vza9P3-19" value="" style="endArrow=classic;html=1;rounded=0;strokeWidth=2;" parent="1" edge="1">
          <mxGeometry width="50" height="50" relative="1" as="geometry">
            <mxPoint x="63" y="448" as="sourcePoint" />
            <mxPoint x="-273" y="448" as="targetPoint" />
          </mxGeometry>
        </mxCell>
        <mxCell id="sd7ySUzB81SbC4Vza9P3-21" value="&lt;font style=&quot;font-size: 22px;&quot;&gt;END_REQ&lt;/font&gt;" style="text;html=1;align=center;verticalAlign=middle;resizable=0;points=[];autosize=1;strokeColor=none;fillColor=none;strokeWidth=2;" parent="1" vertex="1">
          <mxGeometry x="-177" y="412" width="124" height="38" as="geometry" />
        </mxCell>
        <mxCell id="sd7ySUzB81SbC4Vza9P3-22" value="&lt;font style=&quot;font-size: 22px;&quot;&gt;10ns&lt;/font&gt;" style="text;html=1;align=center;verticalAlign=middle;resizable=0;points=[];autosize=1;strokeColor=none;fillColor=none;strokeWidth=2;" parent="1" vertex="1">
          <mxGeometry x="-333.5" y="69" width="66" height="38" as="geometry" />
        </mxCell>
        <mxCell id="sd7ySUzB81SbC4Vza9P3-23" value="&lt;font style=&quot;font-size: 22px;&quot;&gt;10ns&lt;/font&gt;" style="text;html=1;align=center;verticalAlign=middle;resizable=0;points=[];autosize=1;strokeColor=none;fillColor=none;strokeWidth=2;" parent="1" vertex="1">
          <mxGeometry x="3" y="90" width="66" height="38" as="geometry" />
        </mxCell>
        <mxCell id="sd7ySUzB81SbC4Vza9P3-24" value="&lt;font style=&quot;font-size: 22px;&quot;&gt;50ns&lt;/font&gt;" style="text;html=1;align=center;verticalAlign=middle;resizable=0;points=[];autosize=1;strokeColor=none;fillColor=none;strokeWidth=2;" parent="1" vertex="1">
          <mxGeometry x="3" y="251" width="66" height="38" as="geometry" />
        </mxCell>
        <mxCell id="sd7ySUzB81SbC4Vza9P3-25" value="&lt;font style=&quot;font-size: 22px;&quot;&gt;50ns&lt;/font&gt;" style="text;html=1;align=center;verticalAlign=middle;resizable=0;points=[];autosize=1;strokeColor=none;fillColor=none;strokeWidth=2;" parent="1" vertex="1">
          <mxGeometry x="357" y="312" width="70" height="42" as="geometry" />
        </mxCell>
        <mxCell id="sd7ySUzB81SbC4Vza9P3-26" value="&lt;font style=&quot;font-size: 22px;&quot;&gt;50ns&lt;/font&gt;" style="text;html=1;align=center;verticalAlign=middle;resizable=0;points=[];autosize=1;strokeColor=none;fillColor=none;strokeWidth=2;" parent="1" vertex="1">
          <mxGeometry x="644" y="445" width="70" height="42" as="geometry" />
        </mxCell>
        <mxCell id="sd7ySUzB81SbC4Vza9P3-27" value="&lt;font style=&quot;font-size: 22px;&quot;&gt;50ns&lt;/font&gt;" style="text;html=1;align=center;verticalAlign=middle;resizable=0;points=[];autosize=1;strokeColor=none;fillColor=none;strokeWidth=2;" parent="1" vertex="1">
          <mxGeometry x="3" y="454" width="66" height="38" as="geometry" />
        </mxCell>
        <mxCell id="sd7ySUzB81SbC4Vza9P3-28" value="&lt;font style=&quot;font-size: 22px;&quot;&gt;50ns&lt;/font&gt;" style="text;html=1;align=center;verticalAlign=middle;resizable=0;points=[];autosize=1;strokeColor=none;fillColor=none;strokeWidth=2;" parent="1" vertex="1">
          <mxGeometry x="-333.5" y="447" width="66" height="38" as="geometry" />
        </mxCell>
        <mxCell id="sd7ySUzB81SbC4Vza9P3-29" value="" style="endArrow=classic;startArrow=classic;html=1;rounded=0;dashed=1;strokeWidth=2;" parent="1" edge="1">
          <mxGeometry width="50" height="50" relative="1" as="geometry">
            <mxPoint x="-294" y="441" as="sourcePoint" />
            <mxPoint x="-294" y="105" as="targetPoint" />
          </mxGeometry>
        </mxCell>
      </root>
    </mxGraphModel>
  </diagram>
  <diagram id="31Nqy17do7bKHsCO1mm1" name="BusInterconnect">
    <mxGraphModel dx="1834" dy="1236" grid="0" gridSize="7" guides="1" tooltips="1" connect="1" arrows="1" fold="1" page="0" pageScale="1" pageWidth="850" pageHeight="1100" math="0" shadow="0">
      <root>
        <mxCell id="0" />
        <mxCell id="1" parent="0" />
        <mxCell id="hbHvWKLFAtecdcHHp_jC-1" value="" style="rounded=1;whiteSpace=wrap;html=1;strokeWidth=2;" vertex="1" parent="1">
          <mxGeometry x="-364" y="-308" width="1078" height="686" as="geometry" />
        </mxCell>
        <mxCell id="-LBkdNCGQBOYl6hCjzZQ-1" value="Master 1" style="rounded=0;whiteSpace=wrap;html=1;strokeWidth=2;fillColor=#dae8fc;strokeColor=#6c8ebf;" parent="1" vertex="1">
          <mxGeometry x="-315" y="-7" width="120" height="84" as="geometry" />
        </mxCell>
        <mxCell id="-LBkdNCGQBOYl6hCjzZQ-2" value="Master 2" style="rounded=0;whiteSpace=wrap;html=1;strokeWidth=2;fillColor=#dae8fc;strokeColor=#6c8ebf;" parent="1" vertex="1">
          <mxGeometry x="-315" y="140" width="120" height="84" as="geometry" />
        </mxCell>
        <mxCell id="-LBkdNCGQBOYl6hCjzZQ-4" value="BUS MMIO" style="rounded=0;whiteSpace=wrap;html=1;strokeWidth=2;fillColor=#d5e8d4;strokeColor=#82b366;" parent="1" vertex="1">
          <mxGeometry x="28" y="-84" width="120" height="371" as="geometry" />
        </mxCell>
        <mxCell id="-LBkdNCGQBOYl6hCjzZQ-20" style="edgeStyle=orthogonalEdgeStyle;rounded=0;orthogonalLoop=1;jettySize=auto;html=1;entryX=0;entryY=0.5;entryDx=0;entryDy=0;startArrow=classic;startFill=1;strokeWidth=2;" parent="1" source="-LBkdNCGQBOYl6hCjzZQ-5" target="-LBkdNCGQBOYl6hCjzZQ-17" edge="1">
          <mxGeometry relative="1" as="geometry" />
        </mxCell>
        <mxCell id="-LBkdNCGQBOYl6hCjzZQ-5" value="" style="whiteSpace=wrap;html=1;aspect=fixed;fillColor=#ffcd28;gradientColor=#ffa500;strokeColor=#d79b00;strokeWidth=2;" parent="1" vertex="1">
          <mxGeometry x="-194.99999999999994" y="28" width="14" height="14" as="geometry" />
        </mxCell>
        <mxCell id="-LBkdNCGQBOYl6hCjzZQ-6" value="" style="endArrow=none;html=1;rounded=0;entryX=0.5;entryY=0;entryDx=0;entryDy=0;exitX=0.5;exitY=1;exitDx=0;exitDy=0;fillColor=#ffcd28;gradientColor=#ffa500;strokeColor=#d79b00;strokeWidth=2;" parent="1" source="-LBkdNCGQBOYl6hCjzZQ-5" target="-LBkdNCGQBOYl6hCjzZQ-5" edge="1">
          <mxGeometry width="50" height="50" relative="1" as="geometry">
            <mxPoint x="-179" y="76" as="sourcePoint" />
            <mxPoint x="-129" y="26" as="targetPoint" />
          </mxGeometry>
        </mxCell>
        <mxCell id="-LBkdNCGQBOYl6hCjzZQ-7" value="" style="endArrow=none;html=1;rounded=0;exitX=0;exitY=0.5;exitDx=0;exitDy=0;entryX=1;entryY=0.5;entryDx=0;entryDy=0;fillColor=#ffcd28;gradientColor=#ffa500;strokeColor=#d79b00;strokeWidth=2;" parent="1" source="-LBkdNCGQBOYl6hCjzZQ-5" target="-LBkdNCGQBOYl6hCjzZQ-5" edge="1">
          <mxGeometry width="50" height="50" relative="1" as="geometry">
            <mxPoint x="-179" y="76" as="sourcePoint" />
            <mxPoint x="-129" y="26" as="targetPoint" />
          </mxGeometry>
        </mxCell>
        <mxCell id="-LBkdNCGQBOYl6hCjzZQ-21" style="edgeStyle=orthogonalEdgeStyle;rounded=0;orthogonalLoop=1;jettySize=auto;html=1;entryX=0;entryY=0.5;entryDx=0;entryDy=0;startArrow=classic;startFill=1;strokeWidth=2;" parent="1" source="-LBkdNCGQBOYl6hCjzZQ-8" target="-LBkdNCGQBOYl6hCjzZQ-17" edge="1">
          <mxGeometry relative="1" as="geometry" />
        </mxCell>
        <mxCell id="-LBkdNCGQBOYl6hCjzZQ-8" value="" style="whiteSpace=wrap;html=1;aspect=fixed;fillColor=#ffcd28;gradientColor=#ffa500;strokeColor=#d79b00;strokeWidth=2;" parent="1" vertex="1">
          <mxGeometry x="-194.99999999999994" y="175" width="14" height="14" as="geometry" />
        </mxCell>
        <mxCell id="-LBkdNCGQBOYl6hCjzZQ-9" value="" style="endArrow=none;html=1;rounded=0;entryX=0.5;entryY=0;entryDx=0;entryDy=0;exitX=0.5;exitY=1;exitDx=0;exitDy=0;fillColor=#ffcd28;gradientColor=#ffa500;strokeColor=#d79b00;strokeWidth=2;" parent="1" source="-LBkdNCGQBOYl6hCjzZQ-8" target="-LBkdNCGQBOYl6hCjzZQ-8" edge="1">
          <mxGeometry width="50" height="50" relative="1" as="geometry">
            <mxPoint x="-179" y="223" as="sourcePoint" />
            <mxPoint x="-129" y="173" as="targetPoint" />
          </mxGeometry>
        </mxCell>
        <mxCell id="-LBkdNCGQBOYl6hCjzZQ-10" value="" style="endArrow=none;html=1;rounded=0;exitX=0;exitY=0.5;exitDx=0;exitDy=0;entryX=1;entryY=0.5;entryDx=0;entryDy=0;fillColor=#ffcd28;gradientColor=#ffa500;strokeColor=#d79b00;strokeWidth=2;" parent="1" source="-LBkdNCGQBOYl6hCjzZQ-8" target="-LBkdNCGQBOYl6hCjzZQ-8" edge="1">
          <mxGeometry width="50" height="50" relative="1" as="geometry">
            <mxPoint x="-179" y="223" as="sourcePoint" />
            <mxPoint x="-129" y="173" as="targetPoint" />
          </mxGeometry>
        </mxCell>
        <mxCell id="-LBkdNCGQBOYl6hCjzZQ-17" value="" style="whiteSpace=wrap;html=1;aspect=fixed;fillColor=#f5f5f5;gradientColor=#b3b3b3;strokeColor=#666666;strokeWidth=2;" parent="1" vertex="1">
          <mxGeometry x="14" y="95" width="14" height="14" as="geometry" />
        </mxCell>
        <mxCell id="-LBkdNCGQBOYl6hCjzZQ-18" value="" style="endArrow=none;html=1;rounded=0;entryX=0;entryY=0;entryDx=0;entryDy=0;exitX=1;exitY=1;exitDx=0;exitDy=0;fillColor=#f5f5f5;gradientColor=#b3b3b3;strokeColor=#666666;strokeWidth=2;" parent="1" source="-LBkdNCGQBOYl6hCjzZQ-17" target="-LBkdNCGQBOYl6hCjzZQ-17" edge="1">
          <mxGeometry width="50" height="50" relative="1" as="geometry">
            <mxPoint x="30" y="151" as="sourcePoint" />
            <mxPoint x="80" y="101" as="targetPoint" />
          </mxGeometry>
        </mxCell>
        <mxCell id="-LBkdNCGQBOYl6hCjzZQ-19" value="" style="endArrow=none;html=1;rounded=0;exitX=0;exitY=1;exitDx=0;exitDy=0;entryX=1;entryY=0;entryDx=0;entryDy=0;fillColor=#f5f5f5;gradientColor=#b3b3b3;strokeColor=#666666;strokeWidth=2;" parent="1" source="-LBkdNCGQBOYl6hCjzZQ-17" target="-LBkdNCGQBOYl6hCjzZQ-17" edge="1">
          <mxGeometry width="50" height="50" relative="1" as="geometry">
            <mxPoint x="22" y="143" as="sourcePoint" />
            <mxPoint x="72" y="93" as="targetPoint" />
          </mxGeometry>
        </mxCell>
        <mxCell id="-LBkdNCGQBOYl6hCjzZQ-22" value="Slave 1" style="rounded=0;whiteSpace=wrap;html=1;strokeWidth=2;fillColor=#f8cecc;strokeColor=#b85450;" parent="1" vertex="1">
          <mxGeometry x="287" y="-84" width="120" height="84" as="geometry" />
        </mxCell>
        <mxCell id="-LBkdNCGQBOYl6hCjzZQ-23" value="Slave 2" style="rounded=0;whiteSpace=wrap;html=1;strokeWidth=2;fillColor=#f8cecc;strokeColor=#b85450;" parent="1" vertex="1">
          <mxGeometry x="287" y="21" width="120" height="84" as="geometry" />
        </mxCell>
        <mxCell id="-LBkdNCGQBOYl6hCjzZQ-51" style="edgeStyle=orthogonalEdgeStyle;rounded=0;orthogonalLoop=1;jettySize=auto;html=1;entryX=0;entryY=0.25;entryDx=0;entryDy=0;strokeWidth=2;" parent="1" source="-LBkdNCGQBOYl6hCjzZQ-24" target="-LBkdNCGQBOYl6hCjzZQ-49" edge="1">
          <mxGeometry relative="1" as="geometry">
            <Array as="points">
              <mxPoint x="484" y="177" />
            </Array>
          </mxGeometry>
        </mxCell>
        <mxCell id="-LBkdNCGQBOYl6hCjzZQ-60" style="edgeStyle=orthogonalEdgeStyle;rounded=0;orthogonalLoop=1;jettySize=auto;html=1;entryX=0;entryY=0.75;entryDx=0;entryDy=0;endArrow=none;endFill=0;startArrow=classic;startFill=1;strokeWidth=2;" parent="1" source="-LBkdNCGQBOYl6hCjzZQ-24" target="-LBkdNCGQBOYl6hCjzZQ-49" edge="1">
          <mxGeometry relative="1" as="geometry">
            <Array as="points">
              <mxPoint x="484" y="251" />
            </Array>
          </mxGeometry>
        </mxCell>
        <mxCell id="-LBkdNCGQBOYl6hCjzZQ-24" value="AdapterTLM" style="rounded=0;whiteSpace=wrap;html=1;strokeWidth=2;fillColor=#f8cecc;strokeColor=#b85450;" parent="1" vertex="1">
          <mxGeometry x="287" y="140" width="120" height="147" as="geometry" />
        </mxCell>
        <mxCell id="-LBkdNCGQBOYl6hCjzZQ-40" style="edgeStyle=orthogonalEdgeStyle;rounded=0;orthogonalLoop=1;jettySize=auto;html=1;entryX=0;entryY=0.5;entryDx=0;entryDy=0;startArrow=classic;startFill=1;strokeWidth=2;" parent="1" source="-LBkdNCGQBOYl6hCjzZQ-28" target="-LBkdNCGQBOYl6hCjzZQ-34" edge="1">
          <mxGeometry relative="1" as="geometry" />
        </mxCell>
        <mxCell id="-LBkdNCGQBOYl6hCjzZQ-28" value="" style="whiteSpace=wrap;html=1;aspect=fixed;fillColor=#ffcd28;gradientColor=#ffa500;strokeColor=#d79b00;strokeWidth=2;" parent="1" vertex="1">
          <mxGeometry x="148.00000000000006" y="-49" width="14" height="14" as="geometry" />
        </mxCell>
        <mxCell id="-LBkdNCGQBOYl6hCjzZQ-29" value="" style="endArrow=none;html=1;rounded=0;entryX=0.5;entryY=0;entryDx=0;entryDy=0;exitX=0.5;exitY=1;exitDx=0;exitDy=0;fillColor=#ffcd28;gradientColor=#ffa500;strokeColor=#d79b00;strokeWidth=2;" parent="1" source="-LBkdNCGQBOYl6hCjzZQ-28" target="-LBkdNCGQBOYl6hCjzZQ-28" edge="1">
          <mxGeometry width="50" height="50" relative="1" as="geometry">
            <mxPoint x="164" y="-1" as="sourcePoint" />
            <mxPoint x="214" y="-51" as="targetPoint" />
          </mxGeometry>
        </mxCell>
        <mxCell id="-LBkdNCGQBOYl6hCjzZQ-30" value="" style="endArrow=none;html=1;rounded=0;exitX=0;exitY=0.5;exitDx=0;exitDy=0;entryX=1;entryY=0.5;entryDx=0;entryDy=0;fillColor=#ffcd28;gradientColor=#ffa500;strokeColor=#d79b00;strokeWidth=2;" parent="1" source="-LBkdNCGQBOYl6hCjzZQ-28" target="-LBkdNCGQBOYl6hCjzZQ-28" edge="1">
          <mxGeometry width="50" height="50" relative="1" as="geometry">
            <mxPoint x="164" y="-1" as="sourcePoint" />
            <mxPoint x="214" y="-51" as="targetPoint" />
          </mxGeometry>
        </mxCell>
        <mxCell id="-LBkdNCGQBOYl6hCjzZQ-41" style="edgeStyle=orthogonalEdgeStyle;rounded=0;orthogonalLoop=1;jettySize=auto;html=1;entryX=0;entryY=0.5;entryDx=0;entryDy=0;startArrow=classic;startFill=1;strokeWidth=2;" parent="1" source="-LBkdNCGQBOYl6hCjzZQ-31" target="-LBkdNCGQBOYl6hCjzZQ-37" edge="1">
          <mxGeometry relative="1" as="geometry" />
        </mxCell>
        <mxCell id="-LBkdNCGQBOYl6hCjzZQ-31" value="" style="whiteSpace=wrap;html=1;aspect=fixed;fillColor=#ffcd28;gradientColor=#ffa500;strokeColor=#d79b00;strokeWidth=2;" parent="1" vertex="1">
          <mxGeometry x="148.00000000000006" y="56" width="14" height="14" as="geometry" />
        </mxCell>
        <mxCell id="-LBkdNCGQBOYl6hCjzZQ-32" value="" style="endArrow=none;html=1;rounded=0;entryX=0.5;entryY=0;entryDx=0;entryDy=0;exitX=0.5;exitY=1;exitDx=0;exitDy=0;fillColor=#ffcd28;gradientColor=#ffa500;strokeColor=#d79b00;strokeWidth=2;" parent="1" source="-LBkdNCGQBOYl6hCjzZQ-31" target="-LBkdNCGQBOYl6hCjzZQ-31" edge="1">
          <mxGeometry width="50" height="50" relative="1" as="geometry">
            <mxPoint x="164" y="104" as="sourcePoint" />
            <mxPoint x="214" y="54" as="targetPoint" />
          </mxGeometry>
        </mxCell>
        <mxCell id="-LBkdNCGQBOYl6hCjzZQ-33" value="" style="endArrow=none;html=1;rounded=0;exitX=0;exitY=0.5;exitDx=0;exitDy=0;entryX=1;entryY=0.5;entryDx=0;entryDy=0;fillColor=#ffcd28;gradientColor=#ffa500;strokeColor=#d79b00;strokeWidth=2;" parent="1" source="-LBkdNCGQBOYl6hCjzZQ-31" target="-LBkdNCGQBOYl6hCjzZQ-31" edge="1">
          <mxGeometry width="50" height="50" relative="1" as="geometry">
            <mxPoint x="164" y="104" as="sourcePoint" />
            <mxPoint x="214" y="54" as="targetPoint" />
          </mxGeometry>
        </mxCell>
        <mxCell id="-LBkdNCGQBOYl6hCjzZQ-34" value="" style="whiteSpace=wrap;html=1;aspect=fixed;fillColor=#f5f5f5;gradientColor=#b3b3b3;strokeColor=#666666;strokeWidth=2;" parent="1" vertex="1">
          <mxGeometry x="273" y="-49" width="14" height="14" as="geometry" />
        </mxCell>
        <mxCell id="-LBkdNCGQBOYl6hCjzZQ-35" value="" style="endArrow=none;html=1;rounded=0;entryX=0;entryY=0;entryDx=0;entryDy=0;exitX=1;exitY=1;exitDx=0;exitDy=0;fillColor=#f5f5f5;gradientColor=#b3b3b3;strokeColor=#666666;strokeWidth=2;" parent="1" source="-LBkdNCGQBOYl6hCjzZQ-34" target="-LBkdNCGQBOYl6hCjzZQ-34" edge="1">
          <mxGeometry width="50" height="50" relative="1" as="geometry">
            <mxPoint x="289" y="7" as="sourcePoint" />
            <mxPoint x="339" y="-43" as="targetPoint" />
          </mxGeometry>
        </mxCell>
        <mxCell id="-LBkdNCGQBOYl6hCjzZQ-36" value="" style="endArrow=none;html=1;rounded=0;exitX=0;exitY=1;exitDx=0;exitDy=0;entryX=1;entryY=0;entryDx=0;entryDy=0;fillColor=#f5f5f5;gradientColor=#b3b3b3;strokeColor=#666666;strokeWidth=2;" parent="1" source="-LBkdNCGQBOYl6hCjzZQ-34" target="-LBkdNCGQBOYl6hCjzZQ-34" edge="1">
          <mxGeometry width="50" height="50" relative="1" as="geometry">
            <mxPoint x="281" y="-1" as="sourcePoint" />
            <mxPoint x="331" y="-51" as="targetPoint" />
          </mxGeometry>
        </mxCell>
        <mxCell id="-LBkdNCGQBOYl6hCjzZQ-37" value="" style="whiteSpace=wrap;html=1;aspect=fixed;fillColor=#f5f5f5;gradientColor=#b3b3b3;strokeColor=#666666;strokeWidth=2;" parent="1" vertex="1">
          <mxGeometry x="273" y="56" width="14" height="14" as="geometry" />
        </mxCell>
        <mxCell id="-LBkdNCGQBOYl6hCjzZQ-38" value="" style="endArrow=none;html=1;rounded=0;entryX=0;entryY=0;entryDx=0;entryDy=0;exitX=1;exitY=1;exitDx=0;exitDy=0;fillColor=#f5f5f5;gradientColor=#b3b3b3;strokeColor=#666666;strokeWidth=2;" parent="1" source="-LBkdNCGQBOYl6hCjzZQ-37" target="-LBkdNCGQBOYl6hCjzZQ-37" edge="1">
          <mxGeometry width="50" height="50" relative="1" as="geometry">
            <mxPoint x="289" y="112" as="sourcePoint" />
            <mxPoint x="339" y="62" as="targetPoint" />
          </mxGeometry>
        </mxCell>
        <mxCell id="-LBkdNCGQBOYl6hCjzZQ-39" value="" style="endArrow=none;html=1;rounded=0;exitX=0;exitY=1;exitDx=0;exitDy=0;entryX=1;entryY=0;entryDx=0;entryDy=0;fillColor=#f5f5f5;gradientColor=#b3b3b3;strokeColor=#666666;strokeWidth=2;" parent="1" source="-LBkdNCGQBOYl6hCjzZQ-37" target="-LBkdNCGQBOYl6hCjzZQ-37" edge="1">
          <mxGeometry width="50" height="50" relative="1" as="geometry">
            <mxPoint x="281" y="104" as="sourcePoint" />
            <mxPoint x="331" y="54" as="targetPoint" />
          </mxGeometry>
        </mxCell>
        <mxCell id="-LBkdNCGQBOYl6hCjzZQ-42" value="" style="whiteSpace=wrap;html=1;aspect=fixed;fillColor=#f5f5f5;gradientColor=#b3b3b3;strokeColor=#666666;strokeWidth=2;" parent="1" vertex="1">
          <mxGeometry x="273" y="161" width="14" height="14" as="geometry" />
        </mxCell>
        <mxCell id="-LBkdNCGQBOYl6hCjzZQ-43" value="" style="endArrow=none;html=1;rounded=0;entryX=0;entryY=0;entryDx=0;entryDy=0;exitX=1;exitY=1;exitDx=0;exitDy=0;fillColor=#f5f5f5;gradientColor=#b3b3b3;strokeColor=#666666;strokeWidth=2;" parent="1" source="-LBkdNCGQBOYl6hCjzZQ-42" target="-LBkdNCGQBOYl6hCjzZQ-42" edge="1">
          <mxGeometry width="50" height="50" relative="1" as="geometry">
            <mxPoint x="289" y="217" as="sourcePoint" />
            <mxPoint x="339" y="167" as="targetPoint" />
          </mxGeometry>
        </mxCell>
        <mxCell id="-LBkdNCGQBOYl6hCjzZQ-44" value="" style="endArrow=none;html=1;rounded=0;exitX=0;exitY=1;exitDx=0;exitDy=0;entryX=1;entryY=0;entryDx=0;entryDy=0;fillColor=#f5f5f5;gradientColor=#b3b3b3;strokeColor=#666666;strokeWidth=2;" parent="1" source="-LBkdNCGQBOYl6hCjzZQ-42" target="-LBkdNCGQBOYl6hCjzZQ-42" edge="1">
          <mxGeometry width="50" height="50" relative="1" as="geometry">
            <mxPoint x="281" y="209" as="sourcePoint" />
            <mxPoint x="331" y="159" as="targetPoint" />
          </mxGeometry>
        </mxCell>
        <mxCell id="-LBkdNCGQBOYl6hCjzZQ-48" style="edgeStyle=orthogonalEdgeStyle;rounded=0;orthogonalLoop=1;jettySize=auto;html=1;entryX=0;entryY=0.5;entryDx=0;entryDy=0;startArrow=classic;startFill=1;strokeWidth=2;" parent="1" source="-LBkdNCGQBOYl6hCjzZQ-45" target="-LBkdNCGQBOYl6hCjzZQ-42" edge="1">
          <mxGeometry relative="1" as="geometry" />
        </mxCell>
        <mxCell id="-LBkdNCGQBOYl6hCjzZQ-45" value="" style="whiteSpace=wrap;html=1;aspect=fixed;fillColor=#ffcd28;gradientColor=#ffa500;strokeColor=#d79b00;strokeWidth=2;" parent="1" vertex="1">
          <mxGeometry x="148.00000000000006" y="161" width="14" height="14" as="geometry" />
        </mxCell>
        <mxCell id="-LBkdNCGQBOYl6hCjzZQ-46" value="" style="endArrow=none;html=1;rounded=0;entryX=0.5;entryY=0;entryDx=0;entryDy=0;exitX=0.5;exitY=1;exitDx=0;exitDy=0;fillColor=#ffcd28;gradientColor=#ffa500;strokeColor=#d79b00;strokeWidth=2;" parent="1" source="-LBkdNCGQBOYl6hCjzZQ-45" target="-LBkdNCGQBOYl6hCjzZQ-45" edge="1">
          <mxGeometry width="50" height="50" relative="1" as="geometry">
            <mxPoint x="164" y="209" as="sourcePoint" />
            <mxPoint x="214" y="159" as="targetPoint" />
          </mxGeometry>
        </mxCell>
        <mxCell id="-LBkdNCGQBOYl6hCjzZQ-47" value="" style="endArrow=none;html=1;rounded=0;exitX=0;exitY=0.5;exitDx=0;exitDy=0;entryX=1;entryY=0.5;entryDx=0;entryDy=0;fillColor=#ffcd28;gradientColor=#ffa500;strokeColor=#d79b00;strokeWidth=2;" parent="1" source="-LBkdNCGQBOYl6hCjzZQ-45" target="-LBkdNCGQBOYl6hCjzZQ-45" edge="1">
          <mxGeometry width="50" height="50" relative="1" as="geometry">
            <mxPoint x="164" y="209" as="sourcePoint" />
            <mxPoint x="214" y="159" as="targetPoint" />
          </mxGeometry>
        </mxCell>
        <mxCell id="-LBkdNCGQBOYl6hCjzZQ-49" value="Model" style="rounded=0;whiteSpace=wrap;html=1;strokeWidth=2;fillColor=#fff2cc;strokeColor=#d6b656;" parent="1" vertex="1">
          <mxGeometry x="560" y="140.5" width="120" height="147" as="geometry" />
        </mxCell>
        <mxCell id="-LBkdNCGQBOYl6hCjzZQ-50" style="edgeStyle=orthogonalEdgeStyle;rounded=0;orthogonalLoop=1;jettySize=auto;html=1;entryX=0.005;entryY=0.134;entryDx=0;entryDy=0;entryPerimeter=0;strokeWidth=2;" parent="1" source="-LBkdNCGQBOYl6hCjzZQ-24" target="-LBkdNCGQBOYl6hCjzZQ-49" edge="1">
          <mxGeometry relative="1" as="geometry">
            <Array as="points">
              <mxPoint x="483" y="161" />
            </Array>
          </mxGeometry>
        </mxCell>
        <mxCell id="-LBkdNCGQBOYl6hCjzZQ-52" style="edgeStyle=orthogonalEdgeStyle;rounded=0;orthogonalLoop=1;jettySize=auto;html=1;entryX=0.003;entryY=0.376;entryDx=0;entryDy=0;entryPerimeter=0;strokeWidth=2;" parent="1" source="-LBkdNCGQBOYl6hCjzZQ-24" target="-LBkdNCGQBOYl6hCjzZQ-49" edge="1">
          <mxGeometry relative="1" as="geometry">
            <Array as="points">
              <mxPoint x="448" y="196" />
              <mxPoint x="448" y="196" />
            </Array>
          </mxGeometry>
        </mxCell>
        <mxCell id="-LBkdNCGQBOYl6hCjzZQ-57" style="edgeStyle=orthogonalEdgeStyle;rounded=0;orthogonalLoop=1;jettySize=auto;html=1;entryX=0;entryY=0.5;entryDx=0;entryDy=0;startArrow=classic;startFill=1;jumpStyle=arc;strokeWidth=2;" parent="1" source="-LBkdNCGQBOYl6hCjzZQ-54" target="-LBkdNCGQBOYl6hCjzZQ-17" edge="1">
          <mxGeometry relative="1" as="geometry">
            <Array as="points">
              <mxPoint x="224" y="252" />
              <mxPoint x="224" y="350" />
              <mxPoint x="-119" y="350" />
              <mxPoint x="-119" y="102" />
            </Array>
          </mxGeometry>
        </mxCell>
        <mxCell id="-LBkdNCGQBOYl6hCjzZQ-54" value="" style="whiteSpace=wrap;html=1;aspect=fixed;fillColor=#ffcd28;gradientColor=#ffa500;strokeColor=#d79b00;strokeWidth=2;" parent="1" vertex="1">
          <mxGeometry x="273.00000000000006" y="245" width="14" height="14" as="geometry" />
        </mxCell>
        <mxCell id="-LBkdNCGQBOYl6hCjzZQ-55" value="" style="endArrow=none;html=1;rounded=0;entryX=0.5;entryY=0;entryDx=0;entryDy=0;exitX=0.5;exitY=1;exitDx=0;exitDy=0;fillColor=#ffcd28;gradientColor=#ffa500;strokeColor=#d79b00;strokeWidth=2;" parent="1" source="-LBkdNCGQBOYl6hCjzZQ-54" target="-LBkdNCGQBOYl6hCjzZQ-54" edge="1">
          <mxGeometry width="50" height="50" relative="1" as="geometry">
            <mxPoint x="289" y="293" as="sourcePoint" />
            <mxPoint x="339" y="243" as="targetPoint" />
          </mxGeometry>
        </mxCell>
        <mxCell id="-LBkdNCGQBOYl6hCjzZQ-56" value="" style="endArrow=none;html=1;rounded=0;exitX=0;exitY=0.5;exitDx=0;exitDy=0;entryX=1;entryY=0.5;entryDx=0;entryDy=0;fillColor=#ffcd28;gradientColor=#ffa500;strokeColor=#d79b00;strokeWidth=2;" parent="1" source="-LBkdNCGQBOYl6hCjzZQ-54" target="-LBkdNCGQBOYl6hCjzZQ-54" edge="1">
          <mxGeometry width="50" height="50" relative="1" as="geometry">
            <mxPoint x="289" y="293" as="sourcePoint" />
            <mxPoint x="339" y="243" as="targetPoint" />
          </mxGeometry>
        </mxCell>
        <mxCell id="-LBkdNCGQBOYl6hCjzZQ-59" style="edgeStyle=orthogonalEdgeStyle;rounded=0;orthogonalLoop=1;jettySize=auto;html=1;entryX=0.003;entryY=0.612;entryDx=0;entryDy=0;entryPerimeter=0;endArrow=none;endFill=0;startArrow=classic;startFill=1;strokeWidth=2;" parent="1" source="-LBkdNCGQBOYl6hCjzZQ-24" target="-LBkdNCGQBOYl6hCjzZQ-49" edge="1">
          <mxGeometry relative="1" as="geometry">
            <Array as="points">
              <mxPoint x="484" y="230" />
            </Array>
          </mxGeometry>
        </mxCell>
        <mxCell id="-LBkdNCGQBOYl6hCjzZQ-62" value="" style="edgeStyle=orthogonalEdgeStyle;rounded=0;orthogonalLoop=1;jettySize=auto;html=1;strokeWidth=2;" parent="1" source="-LBkdNCGQBOYl6hCjzZQ-61" target="-LBkdNCGQBOYl6hCjzZQ-4" edge="1">
          <mxGeometry relative="1" as="geometry">
            <Array as="points">
              <mxPoint x="95" y="-119" />
              <mxPoint x="95" y="-119" />
            </Array>
          </mxGeometry>
        </mxCell>
        <mxCell id="-LBkdNCGQBOYl6hCjzZQ-63" style="edgeStyle=orthogonalEdgeStyle;rounded=0;orthogonalLoop=1;jettySize=auto;html=1;entryX=0.5;entryY=0;entryDx=0;entryDy=0;strokeWidth=2;" parent="1" source="-LBkdNCGQBOYl6hCjzZQ-61" target="-LBkdNCGQBOYl6hCjzZQ-1" edge="1">
          <mxGeometry relative="1" as="geometry" />
        </mxCell>
        <mxCell id="-LBkdNCGQBOYl6hCjzZQ-64" style="edgeStyle=orthogonalEdgeStyle;rounded=0;orthogonalLoop=1;jettySize=auto;html=1;entryX=0;entryY=0.5;entryDx=0;entryDy=0;strokeWidth=2;" parent="1" source="-LBkdNCGQBOYl6hCjzZQ-61" target="-LBkdNCGQBOYl6hCjzZQ-2" edge="1">
          <mxGeometry relative="1" as="geometry" />
        </mxCell>
        <mxCell id="-LBkdNCGQBOYl6hCjzZQ-65" style="edgeStyle=orthogonalEdgeStyle;rounded=0;orthogonalLoop=1;jettySize=auto;html=1;strokeWidth=2;" parent="1" source="-LBkdNCGQBOYl6hCjzZQ-61" target="-LBkdNCGQBOYl6hCjzZQ-22" edge="1">
          <mxGeometry relative="1" as="geometry" />
        </mxCell>
        <mxCell id="-LBkdNCGQBOYl6hCjzZQ-66" style="edgeStyle=orthogonalEdgeStyle;rounded=0;orthogonalLoop=1;jettySize=auto;html=1;strokeWidth=2;" parent="1" source="-LBkdNCGQBOYl6hCjzZQ-61" target="-LBkdNCGQBOYl6hCjzZQ-49" edge="1">
          <mxGeometry relative="1" as="geometry" />
        </mxCell>
        <mxCell id="-LBkdNCGQBOYl6hCjzZQ-68" style="edgeStyle=orthogonalEdgeStyle;rounded=0;orthogonalLoop=1;jettySize=auto;html=1;entryX=1;entryY=0.5;entryDx=0;entryDy=0;jumpStyle=arc;strokeWidth=2;" parent="1" source="-LBkdNCGQBOYl6hCjzZQ-61" target="-LBkdNCGQBOYl6hCjzZQ-23" edge="1">
          <mxGeometry relative="1" as="geometry">
            <Array as="points">
              <mxPoint x="441" y="-229" />
              <mxPoint x="441" y="63" />
            </Array>
          </mxGeometry>
        </mxCell>
        <mxCell id="-LBkdNCGQBOYl6hCjzZQ-69" style="edgeStyle=orthogonalEdgeStyle;rounded=0;orthogonalLoop=1;jettySize=auto;html=1;jumpStyle=arc;strokeWidth=2;" parent="1" source="-LBkdNCGQBOYl6hCjzZQ-61" target="-LBkdNCGQBOYl6hCjzZQ-24" edge="1">
          <mxGeometry relative="1" as="geometry">
            <Array as="points">
              <mxPoint x="462" y="-229" />
              <mxPoint x="462" y="214" />
            </Array>
          </mxGeometry>
        </mxCell>
        <mxCell id="-LBkdNCGQBOYl6hCjzZQ-61" value="Clock generator" style="rounded=0;whiteSpace=wrap;html=1;strokeWidth=2;fillColor=#f5f5f5;fontColor=#333333;strokeColor=#666666;" parent="1" vertex="1">
          <mxGeometry x="35" y="-259" width="120" height="60" as="geometry" />
        </mxCell>
      </root>
    </mxGraphModel>
  </diagram>
  <diagram id="DWo4Pqtpp0z_34zoxspx" name="BUSArchitecture">
    <mxGraphModel dx="1595" dy="697" grid="1" gridSize="10" guides="1" tooltips="1" connect="1" arrows="1" fold="1" page="0" pageScale="1" pageWidth="850" pageHeight="1100" math="0" shadow="0">
      <root>
        <mxCell id="0" />
        <mxCell id="1" parent="0" />
        <mxCell id="0BOfMnH5Hfs5TON5qdTY-57" value="" style="rounded=1;whiteSpace=wrap;html=1;strokeWidth=2;" vertex="1" parent="1">
          <mxGeometry x="-120" y="140" width="760" height="400" as="geometry" />
        </mxCell>
        <mxCell id="0BOfMnH5Hfs5TON5qdTY-3" value="" style="rounded=0;whiteSpace=wrap;html=1;strokeWidth=2;fillColor=#dae8fc;strokeColor=#6c8ebf;" vertex="1" parent="1">
          <mxGeometry x="160" y="200" width="240" height="280" as="geometry" />
        </mxCell>
        <mxCell id="0BOfMnH5Hfs5TON5qdTY-7" value="Decode address" style="rounded=1;whiteSpace=wrap;html=1;strokeWidth=2;fillColor=#d5e8d4;strokeColor=#82b366;" vertex="1" parent="1">
          <mxGeometry x="240" y="295" width="75" height="90" as="geometry" />
        </mxCell>
        <mxCell id="0BOfMnH5Hfs5TON5qdTY-8" value="BUS MMIO" style="text;html=1;align=center;verticalAlign=middle;resizable=0;points=[];autosize=1;strokeColor=none;fillColor=none;strokeWidth=2;" vertex="1" parent="1">
          <mxGeometry x="160" y="200" width="80" height="30" as="geometry" />
        </mxCell>
        <mxCell id="0BOfMnH5Hfs5TON5qdTY-53" style="edgeStyle=orthogonalEdgeStyle;rounded=0;orthogonalLoop=1;jettySize=auto;html=1;entryX=0;entryY=0.5;entryDx=0;entryDy=0;startArrow=classic;startFill=1;strokeWidth=2;" edge="1" parent="1" source="0BOfMnH5Hfs5TON5qdTY-15" target="0BOfMnH5Hfs5TON5qdTY-44">
          <mxGeometry relative="1" as="geometry" />
        </mxCell>
        <mxCell id="0BOfMnH5Hfs5TON5qdTY-15" value="" style="whiteSpace=wrap;html=1;aspect=fixed;fillColor=#ffcd28;gradientColor=#ffa500;strokeColor=#d79b00;strokeWidth=2;" vertex="1" parent="1">
          <mxGeometry x="400.00000000000006" y="270" width="14" height="14" as="geometry" />
        </mxCell>
        <mxCell id="0BOfMnH5Hfs5TON5qdTY-16" value="" style="endArrow=none;html=1;rounded=0;entryX=0.5;entryY=0;entryDx=0;entryDy=0;exitX=0.5;exitY=1;exitDx=0;exitDy=0;fillColor=#ffcd28;gradientColor=#ffa500;strokeColor=#d79b00;strokeWidth=2;" edge="1" source="0BOfMnH5Hfs5TON5qdTY-15" target="0BOfMnH5Hfs5TON5qdTY-15" parent="1">
          <mxGeometry width="50" height="50" relative="1" as="geometry">
            <mxPoint x="416" y="318" as="sourcePoint" />
            <mxPoint x="466" y="268" as="targetPoint" />
          </mxGeometry>
        </mxCell>
        <mxCell id="0BOfMnH5Hfs5TON5qdTY-17" value="" style="endArrow=none;html=1;rounded=0;exitX=0;exitY=0.5;exitDx=0;exitDy=0;entryX=1;entryY=0.5;entryDx=0;entryDy=0;fillColor=#ffcd28;gradientColor=#ffa500;strokeColor=#d79b00;strokeWidth=2;" edge="1" source="0BOfMnH5Hfs5TON5qdTY-15" target="0BOfMnH5Hfs5TON5qdTY-15" parent="1">
          <mxGeometry width="50" height="50" relative="1" as="geometry">
            <mxPoint x="416" y="318" as="sourcePoint" />
            <mxPoint x="466" y="268" as="targetPoint" />
          </mxGeometry>
        </mxCell>
        <mxCell id="0BOfMnH5Hfs5TON5qdTY-54" style="edgeStyle=orthogonalEdgeStyle;rounded=0;orthogonalLoop=1;jettySize=auto;html=1;entryX=0;entryY=0.5;entryDx=0;entryDy=0;startArrow=classic;startFill=1;strokeWidth=2;" edge="1" parent="1" source="0BOfMnH5Hfs5TON5qdTY-18" target="0BOfMnH5Hfs5TON5qdTY-47">
          <mxGeometry relative="1" as="geometry" />
        </mxCell>
        <mxCell id="0BOfMnH5Hfs5TON5qdTY-18" value="" style="whiteSpace=wrap;html=1;aspect=fixed;fillColor=#ffcd28;gradientColor=#ffa500;strokeColor=#d79b00;strokeWidth=2;" vertex="1" parent="1">
          <mxGeometry x="401.00000000000006" y="333" width="14" height="14" as="geometry" />
        </mxCell>
        <mxCell id="0BOfMnH5Hfs5TON5qdTY-19" value="" style="endArrow=none;html=1;rounded=0;entryX=0.5;entryY=0;entryDx=0;entryDy=0;exitX=0.5;exitY=1;exitDx=0;exitDy=0;fillColor=#ffcd28;gradientColor=#ffa500;strokeColor=#d79b00;strokeWidth=2;" edge="1" source="0BOfMnH5Hfs5TON5qdTY-18" target="0BOfMnH5Hfs5TON5qdTY-18" parent="1">
          <mxGeometry width="50" height="50" relative="1" as="geometry">
            <mxPoint x="417" y="381" as="sourcePoint" />
            <mxPoint x="467" y="331" as="targetPoint" />
          </mxGeometry>
        </mxCell>
        <mxCell id="0BOfMnH5Hfs5TON5qdTY-20" value="" style="endArrow=none;html=1;rounded=0;exitX=0;exitY=0.5;exitDx=0;exitDy=0;entryX=1;entryY=0.5;entryDx=0;entryDy=0;fillColor=#ffcd28;gradientColor=#ffa500;strokeColor=#d79b00;strokeWidth=2;" edge="1" source="0BOfMnH5Hfs5TON5qdTY-18" target="0BOfMnH5Hfs5TON5qdTY-18" parent="1">
          <mxGeometry width="50" height="50" relative="1" as="geometry">
            <mxPoint x="417" y="381" as="sourcePoint" />
            <mxPoint x="467" y="331" as="targetPoint" />
          </mxGeometry>
        </mxCell>
        <mxCell id="0BOfMnH5Hfs5TON5qdTY-55" style="edgeStyle=orthogonalEdgeStyle;rounded=0;orthogonalLoop=1;jettySize=auto;html=1;entryX=0;entryY=0.5;entryDx=0;entryDy=0;startArrow=classic;startFill=1;strokeWidth=2;" edge="1" parent="1" source="0BOfMnH5Hfs5TON5qdTY-21" target="0BOfMnH5Hfs5TON5qdTY-50">
          <mxGeometry relative="1" as="geometry" />
        </mxCell>
        <mxCell id="0BOfMnH5Hfs5TON5qdTY-21" value="" style="whiteSpace=wrap;html=1;aspect=fixed;fillColor=#ffcd28;gradientColor=#ffa500;strokeColor=#d79b00;strokeWidth=2;" vertex="1" parent="1">
          <mxGeometry x="400.00000000000006" y="390" width="14" height="14" as="geometry" />
        </mxCell>
        <mxCell id="0BOfMnH5Hfs5TON5qdTY-22" value="" style="endArrow=none;html=1;rounded=0;entryX=0.5;entryY=0;entryDx=0;entryDy=0;exitX=0.5;exitY=1;exitDx=0;exitDy=0;fillColor=#ffcd28;gradientColor=#ffa500;strokeColor=#d79b00;strokeWidth=2;" edge="1" source="0BOfMnH5Hfs5TON5qdTY-21" target="0BOfMnH5Hfs5TON5qdTY-21" parent="1">
          <mxGeometry width="50" height="50" relative="1" as="geometry">
            <mxPoint x="416" y="438" as="sourcePoint" />
            <mxPoint x="466" y="388" as="targetPoint" />
          </mxGeometry>
        </mxCell>
        <mxCell id="0BOfMnH5Hfs5TON5qdTY-23" value="" style="endArrow=none;html=1;rounded=0;exitX=0;exitY=0.5;exitDx=0;exitDy=0;entryX=1;entryY=0.5;entryDx=0;entryDy=0;fillColor=#ffcd28;gradientColor=#ffa500;strokeColor=#d79b00;strokeWidth=2;" edge="1" source="0BOfMnH5Hfs5TON5qdTY-21" target="0BOfMnH5Hfs5TON5qdTY-21" parent="1">
          <mxGeometry width="50" height="50" relative="1" as="geometry">
            <mxPoint x="416" y="438" as="sourcePoint" />
            <mxPoint x="466" y="388" as="targetPoint" />
          </mxGeometry>
        </mxCell>
        <mxCell id="0BOfMnH5Hfs5TON5qdTY-37" style="edgeStyle=orthogonalEdgeStyle;rounded=0;orthogonalLoop=1;jettySize=auto;html=1;dashed=1;strokeWidth=2;" edge="1" parent="1" source="0BOfMnH5Hfs5TON5qdTY-24" target="0BOfMnH5Hfs5TON5qdTY-7">
          <mxGeometry relative="1" as="geometry" />
        </mxCell>
        <mxCell id="0BOfMnH5Hfs5TON5qdTY-24" value="" style="whiteSpace=wrap;html=1;aspect=fixed;fillColor=#f5f5f5;gradientColor=#b3b3b3;strokeColor=#666666;strokeWidth=2;" vertex="1" parent="1">
          <mxGeometry x="147" y="333" width="14" height="14" as="geometry" />
        </mxCell>
        <mxCell id="0BOfMnH5Hfs5TON5qdTY-25" value="" style="endArrow=none;html=1;rounded=0;entryX=0;entryY=0;entryDx=0;entryDy=0;exitX=1;exitY=1;exitDx=0;exitDy=0;fillColor=#f5f5f5;gradientColor=#b3b3b3;strokeColor=#666666;strokeWidth=2;" edge="1" source="0BOfMnH5Hfs5TON5qdTY-24" target="0BOfMnH5Hfs5TON5qdTY-24" parent="1">
          <mxGeometry width="50" height="50" relative="1" as="geometry">
            <mxPoint x="163" y="389" as="sourcePoint" />
            <mxPoint x="213" y="339" as="targetPoint" />
          </mxGeometry>
        </mxCell>
        <mxCell id="0BOfMnH5Hfs5TON5qdTY-26" value="" style="endArrow=none;html=1;rounded=0;exitX=0;exitY=1;exitDx=0;exitDy=0;entryX=1;entryY=0;entryDx=0;entryDy=0;fillColor=#f5f5f5;gradientColor=#b3b3b3;strokeColor=#666666;strokeWidth=2;" edge="1" source="0BOfMnH5Hfs5TON5qdTY-24" target="0BOfMnH5Hfs5TON5qdTY-24" parent="1">
          <mxGeometry width="50" height="50" relative="1" as="geometry">
            <mxPoint x="155" y="381" as="sourcePoint" />
            <mxPoint x="205" y="331" as="targetPoint" />
          </mxGeometry>
        </mxCell>
        <mxCell id="0BOfMnH5Hfs5TON5qdTY-27" value="Master 1" style="rounded=0;whiteSpace=wrap;html=1;strokeWidth=2;fillColor=#f8cecc;strokeColor=#b85450;" vertex="1" parent="1">
          <mxGeometry x="-100" y="230" width="120" height="60" as="geometry" />
        </mxCell>
        <mxCell id="0BOfMnH5Hfs5TON5qdTY-28" value="Master 1" style="rounded=0;whiteSpace=wrap;html=1;strokeWidth=2;fillColor=#f8cecc;strokeColor=#b85450;" vertex="1" parent="1">
          <mxGeometry x="-100" y="400" width="120" height="60" as="geometry" />
        </mxCell>
        <mxCell id="0BOfMnH5Hfs5TON5qdTY-36" style="edgeStyle=orthogonalEdgeStyle;rounded=0;orthogonalLoop=1;jettySize=auto;html=1;entryX=0;entryY=0.5;entryDx=0;entryDy=0;strokeWidth=2;startArrow=classic;startFill=1;" edge="1" parent="1" source="0BOfMnH5Hfs5TON5qdTY-29" target="0BOfMnH5Hfs5TON5qdTY-24">
          <mxGeometry relative="1" as="geometry" />
        </mxCell>
        <mxCell id="0BOfMnH5Hfs5TON5qdTY-29" value="" style="whiteSpace=wrap;html=1;aspect=fixed;fillColor=#ffcd28;gradientColor=#ffa500;strokeColor=#d79b00;strokeWidth=2;" vertex="1" parent="1">
          <mxGeometry x="20.000000000000057" y="253" width="14" height="14" as="geometry" />
        </mxCell>
        <mxCell id="0BOfMnH5Hfs5TON5qdTY-30" value="" style="endArrow=none;html=1;rounded=0;entryX=0.5;entryY=0;entryDx=0;entryDy=0;exitX=0.5;exitY=1;exitDx=0;exitDy=0;fillColor=#ffcd28;gradientColor=#ffa500;strokeColor=#d79b00;strokeWidth=2;" edge="1" source="0BOfMnH5Hfs5TON5qdTY-29" target="0BOfMnH5Hfs5TON5qdTY-29" parent="1">
          <mxGeometry width="50" height="50" relative="1" as="geometry">
            <mxPoint x="36" y="301" as="sourcePoint" />
            <mxPoint x="86" y="251" as="targetPoint" />
          </mxGeometry>
        </mxCell>
        <mxCell id="0BOfMnH5Hfs5TON5qdTY-31" value="" style="endArrow=none;html=1;rounded=0;exitX=0;exitY=0.5;exitDx=0;exitDy=0;entryX=1;entryY=0.5;entryDx=0;entryDy=0;fillColor=#ffcd28;gradientColor=#ffa500;strokeColor=#d79b00;strokeWidth=2;" edge="1" source="0BOfMnH5Hfs5TON5qdTY-29" target="0BOfMnH5Hfs5TON5qdTY-29" parent="1">
          <mxGeometry width="50" height="50" relative="1" as="geometry">
            <mxPoint x="36" y="301" as="sourcePoint" />
            <mxPoint x="86" y="251" as="targetPoint" />
          </mxGeometry>
        </mxCell>
        <mxCell id="0BOfMnH5Hfs5TON5qdTY-35" style="edgeStyle=orthogonalEdgeStyle;rounded=0;orthogonalLoop=1;jettySize=auto;html=1;entryX=0;entryY=0.5;entryDx=0;entryDy=0;strokeWidth=2;startArrow=classic;startFill=1;" edge="1" parent="1" source="0BOfMnH5Hfs5TON5qdTY-32" target="0BOfMnH5Hfs5TON5qdTY-24">
          <mxGeometry relative="1" as="geometry" />
        </mxCell>
        <mxCell id="0BOfMnH5Hfs5TON5qdTY-32" value="" style="whiteSpace=wrap;html=1;aspect=fixed;fillColor=#ffcd28;gradientColor=#ffa500;strokeColor=#d79b00;strokeWidth=2;" vertex="1" parent="1">
          <mxGeometry x="20.000000000000057" y="423" width="14" height="14" as="geometry" />
        </mxCell>
        <mxCell id="0BOfMnH5Hfs5TON5qdTY-33" value="" style="endArrow=none;html=1;rounded=0;entryX=0.5;entryY=0;entryDx=0;entryDy=0;exitX=0.5;exitY=1;exitDx=0;exitDy=0;fillColor=#ffcd28;gradientColor=#ffa500;strokeColor=#d79b00;strokeWidth=2;" edge="1" source="0BOfMnH5Hfs5TON5qdTY-32" target="0BOfMnH5Hfs5TON5qdTY-32" parent="1">
          <mxGeometry width="50" height="50" relative="1" as="geometry">
            <mxPoint x="36" y="471" as="sourcePoint" />
            <mxPoint x="86" y="421" as="targetPoint" />
          </mxGeometry>
        </mxCell>
        <mxCell id="0BOfMnH5Hfs5TON5qdTY-34" value="" style="endArrow=none;html=1;rounded=0;exitX=0;exitY=0.5;exitDx=0;exitDy=0;entryX=1;entryY=0.5;entryDx=0;entryDy=0;fillColor=#ffcd28;gradientColor=#ffa500;strokeColor=#d79b00;strokeWidth=2;" edge="1" source="0BOfMnH5Hfs5TON5qdTY-32" target="0BOfMnH5Hfs5TON5qdTY-32" parent="1">
          <mxGeometry width="50" height="50" relative="1" as="geometry">
            <mxPoint x="36" y="471" as="sourcePoint" />
            <mxPoint x="86" y="421" as="targetPoint" />
          </mxGeometry>
        </mxCell>
        <mxCell id="0BOfMnH5Hfs5TON5qdTY-38" style="edgeStyle=orthogonalEdgeStyle;rounded=0;orthogonalLoop=1;jettySize=auto;html=1;entryX=0.993;entryY=0.276;entryDx=0;entryDy=0;entryPerimeter=0;strokeWidth=2;dashed=1;" edge="1" parent="1" source="0BOfMnH5Hfs5TON5qdTY-7" target="0BOfMnH5Hfs5TON5qdTY-3">
          <mxGeometry relative="1" as="geometry">
            <Array as="points">
              <mxPoint x="330" y="340" />
              <mxPoint x="330" y="277" />
              <mxPoint x="390" y="277" />
            </Array>
          </mxGeometry>
        </mxCell>
        <mxCell id="0BOfMnH5Hfs5TON5qdTY-39" value="" style="endArrow=classic;html=1;rounded=0;exitX=1;exitY=0.5;exitDx=0;exitDy=0;entryX=1;entryY=0.5;entryDx=0;entryDy=0;strokeWidth=2;dashed=1;" edge="1" parent="1" source="0BOfMnH5Hfs5TON5qdTY-7" target="0BOfMnH5Hfs5TON5qdTY-3">
          <mxGeometry width="50" height="50" relative="1" as="geometry">
            <mxPoint x="340" y="350" as="sourcePoint" />
            <mxPoint x="390" y="300" as="targetPoint" />
          </mxGeometry>
        </mxCell>
        <mxCell id="0BOfMnH5Hfs5TON5qdTY-40" value="" style="endArrow=classic;html=1;rounded=0;exitX=1;exitY=0.5;exitDx=0;exitDy=0;entryX=1;entryY=0.71;entryDx=0;entryDy=0;entryPerimeter=0;strokeWidth=2;dashed=1;" edge="1" parent="1" source="0BOfMnH5Hfs5TON5qdTY-7" target="0BOfMnH5Hfs5TON5qdTY-3">
          <mxGeometry width="50" height="50" relative="1" as="geometry">
            <mxPoint x="320" y="430" as="sourcePoint" />
            <mxPoint x="370" y="380" as="targetPoint" />
            <Array as="points">
              <mxPoint x="330" y="340" />
              <mxPoint x="330" y="400" />
            </Array>
          </mxGeometry>
        </mxCell>
        <mxCell id="0BOfMnH5Hfs5TON5qdTY-41" value="slave 1" style="rounded=0;whiteSpace=wrap;html=1;strokeWidth=2;fillColor=#e1d5e7;strokeColor=#9673a6;" vertex="1" parent="1">
          <mxGeometry x="500" y="235" width="120" height="60" as="geometry" />
        </mxCell>
        <mxCell id="0BOfMnH5Hfs5TON5qdTY-42" value="slave 2" style="rounded=0;whiteSpace=wrap;html=1;strokeWidth=2;fillColor=#e1d5e7;strokeColor=#9673a6;" vertex="1" parent="1">
          <mxGeometry x="500" y="320" width="120" height="60" as="geometry" />
        </mxCell>
        <mxCell id="0BOfMnH5Hfs5TON5qdTY-43" value="slave 3" style="rounded=0;whiteSpace=wrap;html=1;strokeWidth=2;fillColor=#e1d5e7;strokeColor=#9673a6;" vertex="1" parent="1">
          <mxGeometry x="500" y="404" width="120" height="60" as="geometry" />
        </mxCell>
        <mxCell id="0BOfMnH5Hfs5TON5qdTY-44" value="" style="whiteSpace=wrap;html=1;aspect=fixed;fillColor=#f5f5f5;gradientColor=#b3b3b3;strokeColor=#666666;" vertex="1" parent="1">
          <mxGeometry x="486" y="270" width="14" height="14" as="geometry" />
        </mxCell>
        <mxCell id="0BOfMnH5Hfs5TON5qdTY-45" value="" style="endArrow=none;html=1;rounded=0;entryX=0;entryY=0;entryDx=0;entryDy=0;exitX=1;exitY=1;exitDx=0;exitDy=0;fillColor=#f5f5f5;gradientColor=#b3b3b3;strokeColor=#666666;" edge="1" source="0BOfMnH5Hfs5TON5qdTY-44" target="0BOfMnH5Hfs5TON5qdTY-44" parent="1">
          <mxGeometry width="50" height="50" relative="1" as="geometry">
            <mxPoint x="502" y="326" as="sourcePoint" />
            <mxPoint x="552" y="276" as="targetPoint" />
          </mxGeometry>
        </mxCell>
        <mxCell id="0BOfMnH5Hfs5TON5qdTY-46" value="" style="endArrow=none;html=1;rounded=0;exitX=0;exitY=1;exitDx=0;exitDy=0;entryX=1;entryY=0;entryDx=0;entryDy=0;fillColor=#f5f5f5;gradientColor=#b3b3b3;strokeColor=#666666;" edge="1" source="0BOfMnH5Hfs5TON5qdTY-44" target="0BOfMnH5Hfs5TON5qdTY-44" parent="1">
          <mxGeometry width="50" height="50" relative="1" as="geometry">
            <mxPoint x="494" y="318" as="sourcePoint" />
            <mxPoint x="544" y="268" as="targetPoint" />
          </mxGeometry>
        </mxCell>
        <mxCell id="0BOfMnH5Hfs5TON5qdTY-47" value="" style="whiteSpace=wrap;html=1;aspect=fixed;fillColor=#f5f5f5;gradientColor=#b3b3b3;strokeColor=#666666;" vertex="1" parent="1">
          <mxGeometry x="486" y="333" width="14" height="14" as="geometry" />
        </mxCell>
        <mxCell id="0BOfMnH5Hfs5TON5qdTY-48" value="" style="endArrow=none;html=1;rounded=0;entryX=0;entryY=0;entryDx=0;entryDy=0;exitX=1;exitY=1;exitDx=0;exitDy=0;fillColor=#f5f5f5;gradientColor=#b3b3b3;strokeColor=#666666;" edge="1" source="0BOfMnH5Hfs5TON5qdTY-47" target="0BOfMnH5Hfs5TON5qdTY-47" parent="1">
          <mxGeometry width="50" height="50" relative="1" as="geometry">
            <mxPoint x="502" y="389" as="sourcePoint" />
            <mxPoint x="552" y="339" as="targetPoint" />
          </mxGeometry>
        </mxCell>
        <mxCell id="0BOfMnH5Hfs5TON5qdTY-49" value="" style="endArrow=none;html=1;rounded=0;exitX=0;exitY=1;exitDx=0;exitDy=0;entryX=1;entryY=0;entryDx=0;entryDy=0;fillColor=#f5f5f5;gradientColor=#b3b3b3;strokeColor=#666666;" edge="1" source="0BOfMnH5Hfs5TON5qdTY-47" target="0BOfMnH5Hfs5TON5qdTY-47" parent="1">
          <mxGeometry width="50" height="50" relative="1" as="geometry">
            <mxPoint x="494" y="381" as="sourcePoint" />
            <mxPoint x="544" y="331" as="targetPoint" />
          </mxGeometry>
        </mxCell>
        <mxCell id="0BOfMnH5Hfs5TON5qdTY-50" value="" style="whiteSpace=wrap;html=1;aspect=fixed;fillColor=#f5f5f5;gradientColor=#b3b3b3;strokeColor=#666666;" vertex="1" parent="1">
          <mxGeometry x="486" y="423" width="14" height="14" as="geometry" />
        </mxCell>
        <mxCell id="0BOfMnH5Hfs5TON5qdTY-51" value="" style="endArrow=none;html=1;rounded=0;entryX=0;entryY=0;entryDx=0;entryDy=0;exitX=1;exitY=1;exitDx=0;exitDy=0;fillColor=#f5f5f5;gradientColor=#b3b3b3;strokeColor=#666666;" edge="1" source="0BOfMnH5Hfs5TON5qdTY-50" target="0BOfMnH5Hfs5TON5qdTY-50" parent="1">
          <mxGeometry width="50" height="50" relative="1" as="geometry">
            <mxPoint x="502" y="479" as="sourcePoint" />
            <mxPoint x="552" y="429" as="targetPoint" />
          </mxGeometry>
        </mxCell>
        <mxCell id="0BOfMnH5Hfs5TON5qdTY-52" value="" style="endArrow=none;html=1;rounded=0;exitX=0;exitY=1;exitDx=0;exitDy=0;entryX=1;entryY=0;entryDx=0;entryDy=0;fillColor=#f5f5f5;gradientColor=#b3b3b3;strokeColor=#666666;" edge="1" source="0BOfMnH5Hfs5TON5qdTY-50" target="0BOfMnH5Hfs5TON5qdTY-50" parent="1">
          <mxGeometry width="50" height="50" relative="1" as="geometry">
            <mxPoint x="494" y="471" as="sourcePoint" />
            <mxPoint x="544" y="421" as="targetPoint" />
          </mxGeometry>
        </mxCell>
      </root>
    </mxGraphModel>
  </diagram>
  <diagram id="XBvUapLGW_xZRIQnUcX3" name="DummyMaster">
    <mxGraphModel dx="1909" dy="880" grid="1" gridSize="10" guides="1" tooltips="1" connect="1" arrows="1" fold="1" page="0" pageScale="1" pageWidth="850" pageHeight="1100" math="0" shadow="0">
      <root>
        <mxCell id="0" />
        <mxCell id="1" parent="0" />
        <mxCell id="gk8yBXlajm2KXHd5EjEs-15" value="" style="rounded=1;whiteSpace=wrap;html=1;" vertex="1" parent="1">
          <mxGeometry x="-40" y="160" width="670" height="360" as="geometry" />
        </mxCell>
        <mxCell id="gk8yBXlajm2KXHd5EjEs-1" value="" style="rounded=0;whiteSpace=wrap;html=1;strokeWidth=2;" vertex="1" parent="1">
          <mxGeometry x="10" y="200" width="470" height="280" as="geometry" />
        </mxCell>
        <mxCell id="gk8yBXlajm2KXHd5EjEs-2" value="" style="whiteSpace=wrap;html=1;aspect=fixed;fillColor=#ffcd28;gradientColor=#ffa500;strokeColor=#d79b00;strokeWidth=2;" vertex="1" parent="1">
          <mxGeometry x="480" y="316.5" width="47" height="47" as="geometry" />
        </mxCell>
        <mxCell id="gk8yBXlajm2KXHd5EjEs-3" value="" style="endArrow=none;html=1;rounded=0;entryX=0.5;entryY=0;entryDx=0;entryDy=0;exitX=0.5;exitY=1;exitDx=0;exitDy=0;fillColor=#ffcd28;gradientColor=#ffa500;strokeColor=#d79b00;strokeWidth=2;" edge="1" source="gk8yBXlajm2KXHd5EjEs-2" target="gk8yBXlajm2KXHd5EjEs-2" parent="1">
          <mxGeometry width="50" height="50" relative="1" as="geometry">
            <mxPoint x="496" y="364.5" as="sourcePoint" />
            <mxPoint x="546" y="314.5" as="targetPoint" />
          </mxGeometry>
        </mxCell>
        <mxCell id="gk8yBXlajm2KXHd5EjEs-4" value="" style="endArrow=none;html=1;rounded=0;exitX=0;exitY=0.5;exitDx=0;exitDy=0;entryX=1;entryY=0.5;entryDx=0;entryDy=0;fillColor=#ffcd28;gradientColor=#ffa500;strokeColor=#d79b00;strokeWidth=2;" edge="1" source="gk8yBXlajm2KXHd5EjEs-2" target="gk8yBXlajm2KXHd5EjEs-2" parent="1">
          <mxGeometry width="50" height="50" relative="1" as="geometry">
            <mxPoint x="496" y="364.5" as="sourcePoint" />
            <mxPoint x="546" y="314.5" as="targetPoint" />
          </mxGeometry>
        </mxCell>
        <mxCell id="gk8yBXlajm2KXHd5EjEs-7" style="edgeStyle=orthogonalEdgeStyle;rounded=0;orthogonalLoop=1;jettySize=auto;html=1;entryX=1;entryY=0.5;entryDx=0;entryDy=0;startArrow=classic;startFill=1;endArrow=none;endFill=0;strokeWidth=2;dashed=1;" edge="1" parent="1" source="gk8yBXlajm2KXHd5EjEs-6" target="gk8yBXlajm2KXHd5EjEs-1">
          <mxGeometry relative="1" as="geometry">
            <Array as="points">
              <mxPoint x="350" y="260" />
              <mxPoint x="350" y="340" />
            </Array>
          </mxGeometry>
        </mxCell>
        <mxCell id="gk8yBXlajm2KXHd5EjEs-10" style="edgeStyle=orthogonalEdgeStyle;rounded=0;orthogonalLoop=1;jettySize=auto;html=1;dashed=1;strokeWidth=2;" edge="1" parent="1" source="gk8yBXlajm2KXHd5EjEs-6" target="gk8yBXlajm2KXHd5EjEs-9">
          <mxGeometry relative="1" as="geometry" />
        </mxCell>
        <mxCell id="gk8yBXlajm2KXHd5EjEs-6" value="&lt;font style=&quot;font-size: 22px;&quot;&gt;nb_transport_bw&lt;/font&gt;&lt;div style=&quot;font-size: 22px;&quot;&gt;&lt;font style=&quot;font-size: 22px;&quot;&gt;callback&lt;/font&gt;&lt;/div&gt;" style="rounded=1;whiteSpace=wrap;html=1;fillColor=#f5f5f5;fontColor=#333333;strokeColor=#666666;strokeWidth=2;" vertex="1" parent="1">
          <mxGeometry x="25" y="220" width="180" height="90" as="geometry" />
        </mxCell>
        <mxCell id="gk8yBXlajm2KXHd5EjEs-8" value="&lt;font style=&quot;font-size: 22px;&quot;&gt;IS&lt;/font&gt;" style="text;html=1;align=center;verticalAlign=middle;resizable=0;points=[];autosize=1;strokeColor=none;fillColor=none;strokeWidth=2;" vertex="1" parent="1">
          <mxGeometry x="430" y="363.5" width="40" height="40" as="geometry" />
        </mxCell>
        <mxCell id="gk8yBXlajm2KXHd5EjEs-9" value="&lt;font style=&quot;font-size: 22px;&quot;&gt;localdata&lt;/font&gt;" style="rounded=1;whiteSpace=wrap;html=1;fillColor=#f5f5f5;fontColor=#333333;strokeColor=#666666;strokeWidth=2;" vertex="1" parent="1">
          <mxGeometry x="55" y="390" width="120" height="60" as="geometry" />
        </mxCell>
        <mxCell id="gk8yBXlajm2KXHd5EjEs-12" value="&lt;font style=&quot;font-size: 22px;&quot;&gt;&lt;b&gt;Dummy Master&lt;/b&gt;&lt;/font&gt;" style="text;html=1;align=center;verticalAlign=middle;resizable=0;points=[];autosize=1;strokeColor=none;fillColor=none;strokeWidth=2;" vertex="1" parent="1">
          <mxGeometry x="290" y="430" width="180" height="40" as="geometry" />
        </mxCell>
        <mxCell id="gk8yBXlajm2KXHd5EjEs-13" value="" style="shape=flexArrow;endArrow=classic;startArrow=classic;html=1;rounded=0;exitX=1;exitY=0.5;exitDx=0;exitDy=0;fillColor=#dae8fc;strokeColor=#6c8ebf;strokeWidth=2;" edge="1" parent="1" source="gk8yBXlajm2KXHd5EjEs-2">
          <mxGeometry width="100" height="100" relative="1" as="geometry">
            <mxPoint x="700" y="300" as="sourcePoint" />
            <mxPoint x="600" y="340" as="targetPoint" />
          </mxGeometry>
        </mxCell>
      </root>
    </mxGraphModel>
  </diagram>
  <diagram id="Ty_oPhBf-aO6PY3tvMPf" name="DMAC">
    <mxGraphModel dx="4897" dy="2789" grid="0" gridSize="10" guides="1" tooltips="1" connect="1" arrows="1" fold="1" page="0" pageScale="1" pageWidth="850" pageHeight="1100" math="0" shadow="0">
      <root>
        <mxCell id="0" />
        <mxCell id="1" parent="0" />
        <mxCell id="ld1WBiZ3wd1zPpl2oKcN-146" value="" style="rounded=1;whiteSpace=wrap;html=1;strokeWidth=2;strokeColor=#FF3333;" vertex="1" parent="1">
          <mxGeometry x="870" y="-160" width="1460" height="820" as="geometry" />
        </mxCell>
        <mxCell id="ld1WBiZ3wd1zPpl2oKcN-145" value="" style="rounded=1;whiteSpace=wrap;html=1;strokeWidth=2;strokeColor=#FF3333;" vertex="1" parent="1">
          <mxGeometry x="870" y="670" width="1460" height="820" as="geometry" />
        </mxCell>
        <mxCell id="ld1WBiZ3wd1zPpl2oKcN-144" value="" style="rounded=1;whiteSpace=wrap;html=1;strokeWidth=2;strokeColor=#FF3333;" vertex="1" parent="1">
          <mxGeometry x="-600" y="670" width="1460" height="820" as="geometry" />
        </mxCell>
        <mxCell id="ld1WBiZ3wd1zPpl2oKcN-143" value="" style="rounded=1;whiteSpace=wrap;html=1;strokeWidth=2;strokeColor=#FF3333;" vertex="1" parent="1">
          <mxGeometry x="-600" y="-160" width="1460" height="820" as="geometry" />
        </mxCell>
        <mxCell id="ld1WBiZ3wd1zPpl2oKcN-38" value="" style="rounded=0;whiteSpace=wrap;html=1;fillColor=none;dashed=1;strokeWidth=2;" vertex="1" parent="1">
          <mxGeometry x="-520" width="1300" height="560" as="geometry" />
        </mxCell>
        <mxCell id="ld1WBiZ3wd1zPpl2oKcN-6" style="edgeStyle=orthogonalEdgeStyle;rounded=0;orthogonalLoop=1;jettySize=auto;html=1;strokeWidth=2;" edge="1" parent="1" source="ld1WBiZ3wd1zPpl2oKcN-1">
          <mxGeometry relative="1" as="geometry">
            <mxPoint x="-270" y="600" as="targetPoint" />
          </mxGeometry>
        </mxCell>
        <mxCell id="ld1WBiZ3wd1zPpl2oKcN-1" value="&lt;font style=&quot;font-size: 22px;&quot;&gt;CPU&lt;/font&gt;" style="rounded=0;whiteSpace=wrap;html=1;strokeWidth=2;" vertex="1" parent="1">
          <mxGeometry x="-330" y="-100" width="120" height="60" as="geometry" />
        </mxCell>
        <mxCell id="ld1WBiZ3wd1zPpl2oKcN-7" style="edgeStyle=orthogonalEdgeStyle;rounded=0;orthogonalLoop=1;jettySize=auto;html=1;strokeWidth=2;" edge="1" parent="1" source="ld1WBiZ3wd1zPpl2oKcN-2">
          <mxGeometry relative="1" as="geometry">
            <mxPoint x="-10" y="600" as="targetPoint" />
          </mxGeometry>
        </mxCell>
        <mxCell id="ld1WBiZ3wd1zPpl2oKcN-2" value="&lt;font style=&quot;font-size: 22px;&quot;&gt;DMAC&lt;/font&gt;" style="rounded=0;whiteSpace=wrap;html=1;strokeWidth=2;" vertex="1" parent="1">
          <mxGeometry x="-70" y="-100" width="120" height="60" as="geometry" />
        </mxCell>
        <mxCell id="ld1WBiZ3wd1zPpl2oKcN-8" style="edgeStyle=orthogonalEdgeStyle;rounded=0;orthogonalLoop=1;jettySize=auto;html=1;strokeWidth=2;" edge="1" parent="1" source="ld1WBiZ3wd1zPpl2oKcN-3">
          <mxGeometry relative="1" as="geometry">
            <mxPoint x="230" y="600" as="targetPoint" />
          </mxGeometry>
        </mxCell>
        <mxCell id="ld1WBiZ3wd1zPpl2oKcN-3" value="&lt;font style=&quot;font-size: 22px;&quot;&gt;BUS&lt;/font&gt;" style="rounded=0;whiteSpace=wrap;html=1;strokeWidth=2;" vertex="1" parent="1">
          <mxGeometry x="170" y="-100" width="120" height="60" as="geometry" />
        </mxCell>
        <mxCell id="ld1WBiZ3wd1zPpl2oKcN-9" style="edgeStyle=orthogonalEdgeStyle;rounded=0;orthogonalLoop=1;jettySize=auto;html=1;strokeWidth=2;" edge="1" parent="1" source="ld1WBiZ3wd1zPpl2oKcN-4">
          <mxGeometry relative="1" as="geometry">
            <mxPoint x="470" y="600" as="targetPoint" />
          </mxGeometry>
        </mxCell>
        <mxCell id="ld1WBiZ3wd1zPpl2oKcN-4" value="&lt;span style=&quot;font-size: 22px;&quot;&gt;Memory&lt;/span&gt;" style="rounded=0;whiteSpace=wrap;html=1;strokeWidth=2;" vertex="1" parent="1">
          <mxGeometry x="410" y="-100" width="120" height="60" as="geometry" />
        </mxCell>
        <mxCell id="ld1WBiZ3wd1zPpl2oKcN-11" style="edgeStyle=orthogonalEdgeStyle;rounded=0;orthogonalLoop=1;jettySize=auto;html=1;strokeWidth=2;" edge="1" parent="1" source="ld1WBiZ3wd1zPpl2oKcN-5">
          <mxGeometry relative="1" as="geometry">
            <mxPoint x="700" y="600" as="targetPoint" />
          </mxGeometry>
        </mxCell>
        <mxCell id="ld1WBiZ3wd1zPpl2oKcN-5" value="&lt;span style=&quot;font-size: 22px;&quot;&gt;Peripheral&lt;/span&gt;" style="rounded=0;whiteSpace=wrap;html=1;strokeWidth=2;" vertex="1" parent="1">
          <mxGeometry x="640" y="-100" width="120" height="60" as="geometry" />
        </mxCell>
        <mxCell id="ld1WBiZ3wd1zPpl2oKcN-12" value="" style="endArrow=classic;html=1;rounded=0;strokeWidth=2;" edge="1" parent="1">
          <mxGeometry width="50" height="50" relative="1" as="geometry">
            <mxPoint x="-270" y="40" as="sourcePoint" />
            <mxPoint x="-10" y="40" as="targetPoint" />
          </mxGeometry>
        </mxCell>
        <mxCell id="ld1WBiZ3wd1zPpl2oKcN-13" value="&lt;font style=&quot;font-size: 22px;&quot;&gt;Setting DMAC&lt;/font&gt;" style="text;html=1;align=center;verticalAlign=middle;resizable=0;points=[];autosize=1;strokeColor=none;fillColor=none;" vertex="1" parent="1">
          <mxGeometry x="-220" width="160" height="40" as="geometry" />
        </mxCell>
        <mxCell id="ld1WBiZ3wd1zPpl2oKcN-14" value="" style="endArrow=classic;html=1;rounded=0;jumpStyle=arc;strokeWidth=2;jumpSize=14;" edge="1" parent="1">
          <mxGeometry width="50" height="50" relative="1" as="geometry">
            <mxPoint x="700" y="80" as="sourcePoint" />
            <mxPoint x="-10" y="80" as="targetPoint" />
          </mxGeometry>
        </mxCell>
        <mxCell id="ld1WBiZ3wd1zPpl2oKcN-15" value="&lt;font style=&quot;font-size: 22px;&quot;&gt;Request DMA&lt;/font&gt;" style="text;html=1;align=center;verticalAlign=middle;resizable=0;points=[];autosize=1;strokeColor=none;fillColor=none;" vertex="1" parent="1">
          <mxGeometry x="510" y="40" width="160" height="40" as="geometry" />
        </mxCell>
        <mxCell id="ld1WBiZ3wd1zPpl2oKcN-16" value="" style="endArrow=classic;html=1;rounded=0;strokeWidth=2;" edge="1" parent="1">
          <mxGeometry width="50" height="50" relative="1" as="geometry">
            <mxPoint x="-10" y="160" as="sourcePoint" />
            <mxPoint x="230" y="160" as="targetPoint" />
          </mxGeometry>
        </mxCell>
        <mxCell id="ld1WBiZ3wd1zPpl2oKcN-17" value="&lt;font style=&quot;font-size: 22px;&quot;&gt;Request read trans&lt;/font&gt;" style="text;html=1;align=center;verticalAlign=middle;resizable=0;points=[];autosize=1;strokeColor=none;fillColor=none;" vertex="1" parent="1">
          <mxGeometry y="120" width="210" height="40" as="geometry" />
        </mxCell>
        <mxCell id="ld1WBiZ3wd1zPpl2oKcN-18" value="" style="endArrow=classic;html=1;rounded=0;strokeWidth=2;" edge="1" parent="1">
          <mxGeometry width="50" height="50" relative="1" as="geometry">
            <mxPoint x="230" y="160" as="sourcePoint" />
            <mxPoint x="470" y="160" as="targetPoint" />
          </mxGeometry>
        </mxCell>
        <mxCell id="ld1WBiZ3wd1zPpl2oKcN-19" value="&lt;font style=&quot;font-size: 22px;&quot;&gt;Forward read trans&lt;/font&gt;" style="text;html=1;align=center;verticalAlign=middle;resizable=0;points=[];autosize=1;strokeColor=none;fillColor=none;" vertex="1" parent="1">
          <mxGeometry x="245" y="120" width="210" height="40" as="geometry" />
        </mxCell>
        <mxCell id="ld1WBiZ3wd1zPpl2oKcN-20" value="" style="endArrow=classic;html=1;rounded=0;strokeWidth=2;" edge="1" parent="1">
          <mxGeometry width="50" height="50" relative="1" as="geometry">
            <mxPoint x="470" y="240" as="sourcePoint" />
            <mxPoint x="230" y="240" as="targetPoint" />
          </mxGeometry>
        </mxCell>
        <mxCell id="ld1WBiZ3wd1zPpl2oKcN-21" value="&lt;font style=&quot;font-size: 22px;&quot;&gt;Return Data&lt;/font&gt;" style="text;html=1;align=center;verticalAlign=middle;resizable=0;points=[];autosize=1;strokeColor=none;fillColor=none;" vertex="1" parent="1">
          <mxGeometry x="280" y="200" width="140" height="40" as="geometry" />
        </mxCell>
        <mxCell id="ld1WBiZ3wd1zPpl2oKcN-22" value="" style="endArrow=classic;html=1;rounded=0;strokeWidth=2;" edge="1" parent="1">
          <mxGeometry width="50" height="50" relative="1" as="geometry">
            <mxPoint x="230" y="240" as="sourcePoint" />
            <mxPoint x="-10" y="240" as="targetPoint" />
          </mxGeometry>
        </mxCell>
        <mxCell id="ld1WBiZ3wd1zPpl2oKcN-23" value="&lt;font style=&quot;font-size: 22px;&quot;&gt;Return Data&lt;/font&gt;" style="text;html=1;align=center;verticalAlign=middle;resizable=0;points=[];autosize=1;strokeColor=none;fillColor=none;" vertex="1" parent="1">
          <mxGeometry x="40" y="200" width="140" height="40" as="geometry" />
        </mxCell>
        <mxCell id="ld1WBiZ3wd1zPpl2oKcN-24" value="" style="endArrow=classic;html=1;rounded=0;strokeWidth=2;" edge="1" parent="1">
          <mxGeometry width="50" height="50" relative="1" as="geometry">
            <mxPoint x="-10" y="320" as="sourcePoint" />
            <mxPoint x="230" y="320" as="targetPoint" />
          </mxGeometry>
        </mxCell>
        <mxCell id="ld1WBiZ3wd1zPpl2oKcN-26" value="&lt;font style=&quot;font-size: 22px;&quot;&gt;Request write trans&lt;/font&gt;" style="text;html=1;align=center;verticalAlign=middle;resizable=0;points=[];autosize=1;strokeColor=none;fillColor=none;" vertex="1" parent="1">
          <mxGeometry x="5" y="280" width="210" height="40" as="geometry" />
        </mxCell>
        <mxCell id="ld1WBiZ3wd1zPpl2oKcN-27" value="" style="endArrow=classic;html=1;rounded=0;strokeWidth=2;jumpStyle=arc;jumpSize=14;" edge="1" parent="1">
          <mxGeometry width="50" height="50" relative="1" as="geometry">
            <mxPoint x="230" y="320" as="sourcePoint" />
            <mxPoint x="700" y="320" as="targetPoint" />
          </mxGeometry>
        </mxCell>
        <mxCell id="ld1WBiZ3wd1zPpl2oKcN-28" value="&lt;font style=&quot;font-size: 22px;&quot;&gt;Forward write trans&lt;/font&gt;" style="text;html=1;align=center;verticalAlign=middle;resizable=0;points=[];autosize=1;strokeColor=none;fillColor=none;" vertex="1" parent="1">
          <mxGeometry x="245" y="280" width="210" height="40" as="geometry" />
        </mxCell>
        <mxCell id="ld1WBiZ3wd1zPpl2oKcN-29" value="" style="endArrow=classic;html=1;rounded=0;strokeWidth=2;jumpSize=14;jumpStyle=arc;" edge="1" parent="1">
          <mxGeometry width="50" height="50" relative="1" as="geometry">
            <mxPoint x="700" y="400" as="sourcePoint" />
            <mxPoint x="230" y="400" as="targetPoint" />
          </mxGeometry>
        </mxCell>
        <mxCell id="ld1WBiZ3wd1zPpl2oKcN-30" value="&lt;font style=&quot;font-size: 22px;&quot;&gt;Return END_REQ&lt;/font&gt;" style="text;html=1;align=center;verticalAlign=middle;resizable=0;points=[];autosize=1;strokeColor=none;fillColor=none;" vertex="1" parent="1">
          <mxGeometry x="500" y="363" width="200" height="40" as="geometry" />
        </mxCell>
        <mxCell id="ld1WBiZ3wd1zPpl2oKcN-31" value="" style="endArrow=classic;html=1;rounded=0;strokeWidth=2;" edge="1" parent="1">
          <mxGeometry width="50" height="50" relative="1" as="geometry">
            <mxPoint x="230" y="400" as="sourcePoint" />
            <mxPoint x="-10" y="400" as="targetPoint" />
          </mxGeometry>
        </mxCell>
        <mxCell id="ld1WBiZ3wd1zPpl2oKcN-32" value="&lt;font style=&quot;font-size: 22px;&quot;&gt;Return END_REQ&lt;/font&gt;" style="text;html=1;align=center;verticalAlign=middle;resizable=0;points=[];autosize=1;strokeColor=none;fillColor=none;" vertex="1" parent="1">
          <mxGeometry x="20" y="363" width="200" height="40" as="geometry" />
        </mxCell>
        <mxCell id="ld1WBiZ3wd1zPpl2oKcN-33" value="" style="endArrow=classic;html=1;rounded=0;strokeWidth=2;jumpSize=14;jumpStyle=arc;" edge="1" parent="1">
          <mxGeometry width="50" height="50" relative="1" as="geometry">
            <mxPoint x="-10" y="480" as="sourcePoint" />
            <mxPoint x="700" y="480" as="targetPoint" />
          </mxGeometry>
        </mxCell>
        <mxCell id="ld1WBiZ3wd1zPpl2oKcN-34" value="&lt;font style=&quot;font-size: 22px;&quot;&gt;ACK&lt;/font&gt;" style="text;html=1;align=center;verticalAlign=middle;resizable=0;points=[];autosize=1;strokeColor=none;fillColor=none;" vertex="1" parent="1">
          <mxGeometry x="15" y="443" width="70" height="40" as="geometry" />
        </mxCell>
        <mxCell id="ld1WBiZ3wd1zPpl2oKcN-39" value="&lt;font color=&quot;#ff0000&quot; style=&quot;font-size: 22px;&quot;&gt;Memory to peripheral&lt;/font&gt;" style="text;html=1;align=center;verticalAlign=middle;resizable=0;points=[];autosize=1;strokeColor=none;fillColor=none;" vertex="1" parent="1">
          <mxGeometry x="-500" y="10" width="230" height="40" as="geometry" />
        </mxCell>
        <mxCell id="ld1WBiZ3wd1zPpl2oKcN-40" value="" style="rounded=0;whiteSpace=wrap;html=1;fillColor=none;dashed=1;strokeWidth=2;" vertex="1" parent="1">
          <mxGeometry x="930" y="10" width="1300" height="560" as="geometry" />
        </mxCell>
        <mxCell id="ld1WBiZ3wd1zPpl2oKcN-41" style="edgeStyle=orthogonalEdgeStyle;rounded=0;orthogonalLoop=1;jettySize=auto;html=1;strokeWidth=2;" edge="1" parent="1" source="ld1WBiZ3wd1zPpl2oKcN-42">
          <mxGeometry relative="1" as="geometry">
            <mxPoint x="1180" y="610" as="targetPoint" />
          </mxGeometry>
        </mxCell>
        <mxCell id="ld1WBiZ3wd1zPpl2oKcN-42" value="&lt;font style=&quot;font-size: 22px;&quot;&gt;CPU&lt;/font&gt;" style="rounded=0;whiteSpace=wrap;html=1;strokeWidth=2;" vertex="1" parent="1">
          <mxGeometry x="1120" y="-90" width="120" height="60" as="geometry" />
        </mxCell>
        <mxCell id="ld1WBiZ3wd1zPpl2oKcN-43" style="edgeStyle=orthogonalEdgeStyle;rounded=0;orthogonalLoop=1;jettySize=auto;html=1;strokeWidth=2;" edge="1" parent="1" source="ld1WBiZ3wd1zPpl2oKcN-44">
          <mxGeometry relative="1" as="geometry">
            <mxPoint x="1440" y="610" as="targetPoint" />
          </mxGeometry>
        </mxCell>
        <mxCell id="ld1WBiZ3wd1zPpl2oKcN-44" value="&lt;font style=&quot;font-size: 22px;&quot;&gt;DMAC&lt;/font&gt;" style="rounded=0;whiteSpace=wrap;html=1;strokeWidth=2;" vertex="1" parent="1">
          <mxGeometry x="1380" y="-90" width="120" height="60" as="geometry" />
        </mxCell>
        <mxCell id="ld1WBiZ3wd1zPpl2oKcN-45" style="edgeStyle=orthogonalEdgeStyle;rounded=0;orthogonalLoop=1;jettySize=auto;html=1;strokeWidth=2;" edge="1" parent="1" source="ld1WBiZ3wd1zPpl2oKcN-46">
          <mxGeometry relative="1" as="geometry">
            <mxPoint x="1680" y="610" as="targetPoint" />
          </mxGeometry>
        </mxCell>
        <mxCell id="ld1WBiZ3wd1zPpl2oKcN-46" value="&lt;font style=&quot;font-size: 22px;&quot;&gt;BUS&lt;/font&gt;" style="rounded=0;whiteSpace=wrap;html=1;strokeWidth=2;" vertex="1" parent="1">
          <mxGeometry x="1620" y="-90" width="120" height="60" as="geometry" />
        </mxCell>
        <mxCell id="ld1WBiZ3wd1zPpl2oKcN-47" style="edgeStyle=orthogonalEdgeStyle;rounded=0;orthogonalLoop=1;jettySize=auto;html=1;strokeWidth=2;" edge="1" parent="1" source="ld1WBiZ3wd1zPpl2oKcN-48">
          <mxGeometry relative="1" as="geometry">
            <mxPoint x="1920" y="610" as="targetPoint" />
          </mxGeometry>
        </mxCell>
        <mxCell id="ld1WBiZ3wd1zPpl2oKcN-48" value="&lt;span style=&quot;font-size: 22px;&quot;&gt;Peripheral&lt;/span&gt;" style="rounded=0;whiteSpace=wrap;html=1;strokeWidth=2;" vertex="1" parent="1">
          <mxGeometry x="1860" y="-90" width="120" height="60" as="geometry" />
        </mxCell>
        <mxCell id="ld1WBiZ3wd1zPpl2oKcN-49" style="edgeStyle=orthogonalEdgeStyle;rounded=0;orthogonalLoop=1;jettySize=auto;html=1;strokeWidth=2;" edge="1" parent="1" source="ld1WBiZ3wd1zPpl2oKcN-50">
          <mxGeometry relative="1" as="geometry">
            <mxPoint x="2150" y="610" as="targetPoint" />
          </mxGeometry>
        </mxCell>
        <mxCell id="ld1WBiZ3wd1zPpl2oKcN-50" value="&lt;span style=&quot;font-size: 22px;&quot;&gt;Memory&lt;/span&gt;" style="rounded=0;whiteSpace=wrap;html=1;strokeWidth=2;" vertex="1" parent="1">
          <mxGeometry x="2090" y="-90" width="120" height="60" as="geometry" />
        </mxCell>
        <mxCell id="ld1WBiZ3wd1zPpl2oKcN-51" value="" style="endArrow=classic;html=1;rounded=0;strokeWidth=2;" edge="1" parent="1">
          <mxGeometry width="50" height="50" relative="1" as="geometry">
            <mxPoint x="1180" y="50" as="sourcePoint" />
            <mxPoint x="1440" y="50" as="targetPoint" />
          </mxGeometry>
        </mxCell>
        <mxCell id="ld1WBiZ3wd1zPpl2oKcN-52" value="&lt;font style=&quot;font-size: 22px;&quot;&gt;Setting DMAC&lt;/font&gt;" style="text;html=1;align=center;verticalAlign=middle;resizable=0;points=[];autosize=1;strokeColor=none;fillColor=none;" vertex="1" parent="1">
          <mxGeometry x="1230" y="10" width="160" height="40" as="geometry" />
        </mxCell>
        <mxCell id="ld1WBiZ3wd1zPpl2oKcN-53" value="" style="endArrow=classic;html=1;rounded=0;jumpStyle=arc;strokeWidth=2;jumpSize=14;" edge="1" parent="1">
          <mxGeometry width="50" height="50" relative="1" as="geometry">
            <mxPoint x="2150" y="90" as="sourcePoint" />
            <mxPoint x="1440" y="90" as="targetPoint" />
          </mxGeometry>
        </mxCell>
        <mxCell id="ld1WBiZ3wd1zPpl2oKcN-54" value="&lt;font style=&quot;font-size: 22px;&quot;&gt;Request DMA&lt;/font&gt;" style="text;html=1;align=center;verticalAlign=middle;resizable=0;points=[];autosize=1;strokeColor=none;fillColor=none;" vertex="1" parent="1">
          <mxGeometry x="1960" y="50" width="160" height="40" as="geometry" />
        </mxCell>
        <mxCell id="ld1WBiZ3wd1zPpl2oKcN-55" value="" style="endArrow=classic;html=1;rounded=0;strokeWidth=2;" edge="1" parent="1">
          <mxGeometry width="50" height="50" relative="1" as="geometry">
            <mxPoint x="1440" y="170" as="sourcePoint" />
            <mxPoint x="1680" y="170" as="targetPoint" />
          </mxGeometry>
        </mxCell>
        <mxCell id="ld1WBiZ3wd1zPpl2oKcN-56" value="&lt;font style=&quot;font-size: 22px;&quot;&gt;Request read trans&lt;/font&gt;" style="text;html=1;align=center;verticalAlign=middle;resizable=0;points=[];autosize=1;strokeColor=none;fillColor=none;" vertex="1" parent="1">
          <mxGeometry x="1450" y="130" width="210" height="40" as="geometry" />
        </mxCell>
        <mxCell id="ld1WBiZ3wd1zPpl2oKcN-57" value="" style="endArrow=classic;html=1;rounded=0;strokeWidth=2;" edge="1" parent="1">
          <mxGeometry width="50" height="50" relative="1" as="geometry">
            <mxPoint x="1680" y="170" as="sourcePoint" />
            <mxPoint x="1920" y="170" as="targetPoint" />
          </mxGeometry>
        </mxCell>
        <mxCell id="ld1WBiZ3wd1zPpl2oKcN-58" value="&lt;font style=&quot;font-size: 22px;&quot;&gt;Forward read trans&lt;/font&gt;" style="text;html=1;align=center;verticalAlign=middle;resizable=0;points=[];autosize=1;strokeColor=none;fillColor=none;" vertex="1" parent="1">
          <mxGeometry x="1695" y="130" width="210" height="40" as="geometry" />
        </mxCell>
        <mxCell id="ld1WBiZ3wd1zPpl2oKcN-59" value="" style="endArrow=classic;html=1;rounded=0;strokeWidth=2;" edge="1" parent="1">
          <mxGeometry width="50" height="50" relative="1" as="geometry">
            <mxPoint x="1920" y="250" as="sourcePoint" />
            <mxPoint x="1680" y="250" as="targetPoint" />
          </mxGeometry>
        </mxCell>
        <mxCell id="ld1WBiZ3wd1zPpl2oKcN-60" value="&lt;font style=&quot;font-size: 22px;&quot;&gt;Return Data&lt;/font&gt;" style="text;html=1;align=center;verticalAlign=middle;resizable=0;points=[];autosize=1;strokeColor=none;fillColor=none;" vertex="1" parent="1">
          <mxGeometry x="1730" y="210" width="140" height="40" as="geometry" />
        </mxCell>
        <mxCell id="ld1WBiZ3wd1zPpl2oKcN-61" value="" style="endArrow=classic;html=1;rounded=0;strokeWidth=2;" edge="1" parent="1">
          <mxGeometry width="50" height="50" relative="1" as="geometry">
            <mxPoint x="1680" y="250" as="sourcePoint" />
            <mxPoint x="1440" y="250" as="targetPoint" />
          </mxGeometry>
        </mxCell>
        <mxCell id="ld1WBiZ3wd1zPpl2oKcN-62" value="&lt;font style=&quot;font-size: 22px;&quot;&gt;Return Data&lt;/font&gt;" style="text;html=1;align=center;verticalAlign=middle;resizable=0;points=[];autosize=1;strokeColor=none;fillColor=none;" vertex="1" parent="1">
          <mxGeometry x="1490" y="210" width="140" height="40" as="geometry" />
        </mxCell>
        <mxCell id="ld1WBiZ3wd1zPpl2oKcN-63" value="" style="endArrow=classic;html=1;rounded=0;strokeWidth=2;" edge="1" parent="1">
          <mxGeometry width="50" height="50" relative="1" as="geometry">
            <mxPoint x="1440" y="330" as="sourcePoint" />
            <mxPoint x="1680" y="330" as="targetPoint" />
          </mxGeometry>
        </mxCell>
        <mxCell id="ld1WBiZ3wd1zPpl2oKcN-64" value="&lt;font style=&quot;font-size: 22px;&quot;&gt;Request write trans&lt;/font&gt;" style="text;html=1;align=center;verticalAlign=middle;resizable=0;points=[];autosize=1;strokeColor=none;fillColor=none;" vertex="1" parent="1">
          <mxGeometry x="1455" y="290" width="210" height="40" as="geometry" />
        </mxCell>
        <mxCell id="ld1WBiZ3wd1zPpl2oKcN-65" value="" style="endArrow=classic;html=1;rounded=0;strokeWidth=2;jumpStyle=arc;jumpSize=14;" edge="1" parent="1">
          <mxGeometry width="50" height="50" relative="1" as="geometry">
            <mxPoint x="1680" y="330" as="sourcePoint" />
            <mxPoint x="2150" y="330" as="targetPoint" />
          </mxGeometry>
        </mxCell>
        <mxCell id="ld1WBiZ3wd1zPpl2oKcN-66" value="&lt;font style=&quot;font-size: 22px;&quot;&gt;Forward write trans&lt;/font&gt;" style="text;html=1;align=center;verticalAlign=middle;resizable=0;points=[];autosize=1;strokeColor=none;fillColor=none;" vertex="1" parent="1">
          <mxGeometry x="1695" y="290" width="210" height="40" as="geometry" />
        </mxCell>
        <mxCell id="ld1WBiZ3wd1zPpl2oKcN-67" value="" style="endArrow=classic;html=1;rounded=0;strokeWidth=2;jumpSize=14;jumpStyle=arc;" edge="1" parent="1">
          <mxGeometry width="50" height="50" relative="1" as="geometry">
            <mxPoint x="2150" y="410" as="sourcePoint" />
            <mxPoint x="1680" y="410" as="targetPoint" />
          </mxGeometry>
        </mxCell>
        <mxCell id="ld1WBiZ3wd1zPpl2oKcN-68" value="&lt;font style=&quot;font-size: 22px;&quot;&gt;Return END_REQ&lt;/font&gt;" style="text;html=1;align=center;verticalAlign=middle;resizable=0;points=[];autosize=1;strokeColor=none;fillColor=none;" vertex="1" parent="1">
          <mxGeometry x="1950" y="373" width="200" height="40" as="geometry" />
        </mxCell>
        <mxCell id="ld1WBiZ3wd1zPpl2oKcN-69" value="" style="endArrow=classic;html=1;rounded=0;strokeWidth=2;" edge="1" parent="1">
          <mxGeometry width="50" height="50" relative="1" as="geometry">
            <mxPoint x="1680" y="410" as="sourcePoint" />
            <mxPoint x="1440" y="410" as="targetPoint" />
          </mxGeometry>
        </mxCell>
        <mxCell id="ld1WBiZ3wd1zPpl2oKcN-70" value="&lt;font style=&quot;font-size: 22px;&quot;&gt;Return END_REQ&lt;/font&gt;" style="text;html=1;align=center;verticalAlign=middle;resizable=0;points=[];autosize=1;strokeColor=none;fillColor=none;" vertex="1" parent="1">
          <mxGeometry x="1470" y="373" width="200" height="40" as="geometry" />
        </mxCell>
        <mxCell id="ld1WBiZ3wd1zPpl2oKcN-71" value="" style="endArrow=classic;html=1;rounded=0;strokeWidth=2;jumpSize=14;jumpStyle=arc;" edge="1" parent="1">
          <mxGeometry width="50" height="50" relative="1" as="geometry">
            <mxPoint x="1440" y="490" as="sourcePoint" />
            <mxPoint x="2150" y="490" as="targetPoint" />
          </mxGeometry>
        </mxCell>
        <mxCell id="ld1WBiZ3wd1zPpl2oKcN-72" value="&lt;font style=&quot;font-size: 22px;&quot;&gt;ACK&lt;/font&gt;" style="text;html=1;align=center;verticalAlign=middle;resizable=0;points=[];autosize=1;strokeColor=none;fillColor=none;" vertex="1" parent="1">
          <mxGeometry x="1465" y="453" width="70" height="40" as="geometry" />
        </mxCell>
        <mxCell id="ld1WBiZ3wd1zPpl2oKcN-73" value="&lt;font color=&quot;#ff0000&quot; style=&quot;font-size: 22px;&quot;&gt;Peripheral to memory&lt;/font&gt;" style="text;html=1;align=center;verticalAlign=middle;resizable=0;points=[];autosize=1;strokeColor=none;fillColor=none;" vertex="1" parent="1">
          <mxGeometry x="950" y="20" width="230" height="40" as="geometry" />
        </mxCell>
        <mxCell id="ld1WBiZ3wd1zPpl2oKcN-74" value="" style="rounded=0;whiteSpace=wrap;html=1;fillColor=none;dashed=1;strokeWidth=2;" vertex="1" parent="1">
          <mxGeometry x="-520" y="820" width="1300" height="560" as="geometry" />
        </mxCell>
        <mxCell id="ld1WBiZ3wd1zPpl2oKcN-75" style="edgeStyle=orthogonalEdgeStyle;rounded=0;orthogonalLoop=1;jettySize=auto;html=1;strokeWidth=2;" edge="1" parent="1" source="ld1WBiZ3wd1zPpl2oKcN-76">
          <mxGeometry relative="1" as="geometry">
            <mxPoint x="-270" y="1420" as="targetPoint" />
          </mxGeometry>
        </mxCell>
        <mxCell id="ld1WBiZ3wd1zPpl2oKcN-76" value="&lt;font style=&quot;font-size: 22px;&quot;&gt;CPU&lt;/font&gt;" style="rounded=0;whiteSpace=wrap;html=1;strokeWidth=2;" vertex="1" parent="1">
          <mxGeometry x="-330" y="720" width="120" height="60" as="geometry" />
        </mxCell>
        <mxCell id="ld1WBiZ3wd1zPpl2oKcN-77" style="edgeStyle=orthogonalEdgeStyle;rounded=0;orthogonalLoop=1;jettySize=auto;html=1;strokeWidth=2;" edge="1" parent="1" source="ld1WBiZ3wd1zPpl2oKcN-78">
          <mxGeometry relative="1" as="geometry">
            <mxPoint x="-10" y="1420" as="targetPoint" />
          </mxGeometry>
        </mxCell>
        <mxCell id="ld1WBiZ3wd1zPpl2oKcN-78" value="&lt;font style=&quot;font-size: 22px;&quot;&gt;DMAC&lt;/font&gt;" style="rounded=0;whiteSpace=wrap;html=1;strokeWidth=2;" vertex="1" parent="1">
          <mxGeometry x="-70" y="720" width="120" height="60" as="geometry" />
        </mxCell>
        <mxCell id="ld1WBiZ3wd1zPpl2oKcN-79" style="edgeStyle=orthogonalEdgeStyle;rounded=0;orthogonalLoop=1;jettySize=auto;html=1;strokeWidth=2;" edge="1" parent="1" source="ld1WBiZ3wd1zPpl2oKcN-80">
          <mxGeometry relative="1" as="geometry">
            <mxPoint x="230" y="1420" as="targetPoint" />
          </mxGeometry>
        </mxCell>
        <mxCell id="ld1WBiZ3wd1zPpl2oKcN-80" value="&lt;font style=&quot;font-size: 22px;&quot;&gt;BUS&lt;/font&gt;" style="rounded=0;whiteSpace=wrap;html=1;strokeWidth=2;" vertex="1" parent="1">
          <mxGeometry x="170" y="720" width="120" height="60" as="geometry" />
        </mxCell>
        <mxCell id="ld1WBiZ3wd1zPpl2oKcN-81" style="edgeStyle=orthogonalEdgeStyle;rounded=0;orthogonalLoop=1;jettySize=auto;html=1;strokeWidth=2;" edge="1" parent="1" source="ld1WBiZ3wd1zPpl2oKcN-82">
          <mxGeometry relative="1" as="geometry">
            <mxPoint x="470" y="1420" as="targetPoint" />
          </mxGeometry>
        </mxCell>
        <mxCell id="ld1WBiZ3wd1zPpl2oKcN-82" value="&lt;span style=&quot;font-size: 22px;&quot;&gt;Peripheral&lt;/span&gt;" style="rounded=0;whiteSpace=wrap;html=1;strokeWidth=2;" vertex="1" parent="1">
          <mxGeometry x="410" y="720" width="120" height="60" as="geometry" />
        </mxCell>
        <mxCell id="ld1WBiZ3wd1zPpl2oKcN-83" style="edgeStyle=orthogonalEdgeStyle;rounded=0;orthogonalLoop=1;jettySize=auto;html=1;strokeWidth=2;" edge="1" parent="1" source="ld1WBiZ3wd1zPpl2oKcN-84">
          <mxGeometry relative="1" as="geometry">
            <mxPoint x="700" y="1420" as="targetPoint" />
          </mxGeometry>
        </mxCell>
        <mxCell id="ld1WBiZ3wd1zPpl2oKcN-84" value="&lt;span style=&quot;font-size: 22px;&quot;&gt;Peripheral&lt;/span&gt;" style="rounded=0;whiteSpace=wrap;html=1;strokeWidth=2;" vertex="1" parent="1">
          <mxGeometry x="640" y="720" width="120" height="60" as="geometry" />
        </mxCell>
        <mxCell id="ld1WBiZ3wd1zPpl2oKcN-85" value="" style="endArrow=classic;html=1;rounded=0;strokeWidth=2;" edge="1" parent="1">
          <mxGeometry width="50" height="50" relative="1" as="geometry">
            <mxPoint x="-270" y="860" as="sourcePoint" />
            <mxPoint x="-10" y="860" as="targetPoint" />
          </mxGeometry>
        </mxCell>
        <mxCell id="ld1WBiZ3wd1zPpl2oKcN-86" value="&lt;font style=&quot;font-size: 22px;&quot;&gt;Setting DMAC&lt;/font&gt;" style="text;html=1;align=center;verticalAlign=middle;resizable=0;points=[];autosize=1;strokeColor=none;fillColor=none;" vertex="1" parent="1">
          <mxGeometry x="-220" y="820" width="160" height="40" as="geometry" />
        </mxCell>
        <mxCell id="ld1WBiZ3wd1zPpl2oKcN-87" value="" style="endArrow=classic;html=1;rounded=0;jumpStyle=arc;strokeWidth=2;jumpSize=14;" edge="1" parent="1">
          <mxGeometry width="50" height="50" relative="1" as="geometry">
            <mxPoint x="700" y="900" as="sourcePoint" />
            <mxPoint x="-10" y="900" as="targetPoint" />
          </mxGeometry>
        </mxCell>
        <mxCell id="ld1WBiZ3wd1zPpl2oKcN-88" value="&lt;font style=&quot;font-size: 22px;&quot;&gt;Request DMA&lt;/font&gt;" style="text;html=1;align=center;verticalAlign=middle;resizable=0;points=[];autosize=1;strokeColor=none;fillColor=none;" vertex="1" parent="1">
          <mxGeometry x="510" y="860" width="160" height="40" as="geometry" />
        </mxCell>
        <mxCell id="ld1WBiZ3wd1zPpl2oKcN-89" value="" style="endArrow=classic;html=1;rounded=0;strokeWidth=2;" edge="1" parent="1">
          <mxGeometry width="50" height="50" relative="1" as="geometry">
            <mxPoint x="-10" y="980" as="sourcePoint" />
            <mxPoint x="230" y="980" as="targetPoint" />
          </mxGeometry>
        </mxCell>
        <mxCell id="ld1WBiZ3wd1zPpl2oKcN-90" value="&lt;font style=&quot;font-size: 22px;&quot;&gt;Request read trans&lt;/font&gt;" style="text;html=1;align=center;verticalAlign=middle;resizable=0;points=[];autosize=1;strokeColor=none;fillColor=none;" vertex="1" parent="1">
          <mxGeometry y="940" width="210" height="40" as="geometry" />
        </mxCell>
        <mxCell id="ld1WBiZ3wd1zPpl2oKcN-91" value="" style="endArrow=classic;html=1;rounded=0;strokeWidth=2;" edge="1" parent="1">
          <mxGeometry width="50" height="50" relative="1" as="geometry">
            <mxPoint x="230" y="980" as="sourcePoint" />
            <mxPoint x="470" y="980" as="targetPoint" />
          </mxGeometry>
        </mxCell>
        <mxCell id="ld1WBiZ3wd1zPpl2oKcN-92" value="&lt;font style=&quot;font-size: 22px;&quot;&gt;Forward read trans&lt;/font&gt;" style="text;html=1;align=center;verticalAlign=middle;resizable=0;points=[];autosize=1;strokeColor=none;fillColor=none;" vertex="1" parent="1">
          <mxGeometry x="245" y="940" width="210" height="40" as="geometry" />
        </mxCell>
        <mxCell id="ld1WBiZ3wd1zPpl2oKcN-93" value="" style="endArrow=classic;html=1;rounded=0;strokeWidth=2;" edge="1" parent="1">
          <mxGeometry width="50" height="50" relative="1" as="geometry">
            <mxPoint x="470" y="1060" as="sourcePoint" />
            <mxPoint x="230" y="1060" as="targetPoint" />
          </mxGeometry>
        </mxCell>
        <mxCell id="ld1WBiZ3wd1zPpl2oKcN-94" value="&lt;font style=&quot;font-size: 22px;&quot;&gt;Return Data&lt;/font&gt;" style="text;html=1;align=center;verticalAlign=middle;resizable=0;points=[];autosize=1;strokeColor=none;fillColor=none;" vertex="1" parent="1">
          <mxGeometry x="280" y="1020" width="140" height="40" as="geometry" />
        </mxCell>
        <mxCell id="ld1WBiZ3wd1zPpl2oKcN-95" value="" style="endArrow=classic;html=1;rounded=0;strokeWidth=2;" edge="1" parent="1">
          <mxGeometry width="50" height="50" relative="1" as="geometry">
            <mxPoint x="230" y="1060" as="sourcePoint" />
            <mxPoint x="-10" y="1060" as="targetPoint" />
          </mxGeometry>
        </mxCell>
        <mxCell id="ld1WBiZ3wd1zPpl2oKcN-96" value="&lt;font style=&quot;font-size: 22px;&quot;&gt;Return Data&lt;/font&gt;" style="text;html=1;align=center;verticalAlign=middle;resizable=0;points=[];autosize=1;strokeColor=none;fillColor=none;" vertex="1" parent="1">
          <mxGeometry x="40" y="1020" width="140" height="40" as="geometry" />
        </mxCell>
        <mxCell id="ld1WBiZ3wd1zPpl2oKcN-97" value="" style="endArrow=classic;html=1;rounded=0;strokeWidth=2;" edge="1" parent="1">
          <mxGeometry width="50" height="50" relative="1" as="geometry">
            <mxPoint x="-10" y="1140" as="sourcePoint" />
            <mxPoint x="230" y="1140" as="targetPoint" />
          </mxGeometry>
        </mxCell>
        <mxCell id="ld1WBiZ3wd1zPpl2oKcN-98" value="&lt;font style=&quot;font-size: 22px;&quot;&gt;Request write trans&lt;/font&gt;" style="text;html=1;align=center;verticalAlign=middle;resizable=0;points=[];autosize=1;strokeColor=none;fillColor=none;" vertex="1" parent="1">
          <mxGeometry x="5" y="1100" width="210" height="40" as="geometry" />
        </mxCell>
        <mxCell id="ld1WBiZ3wd1zPpl2oKcN-99" value="" style="endArrow=classic;html=1;rounded=0;strokeWidth=2;jumpStyle=arc;jumpSize=14;" edge="1" parent="1">
          <mxGeometry width="50" height="50" relative="1" as="geometry">
            <mxPoint x="230" y="1140" as="sourcePoint" />
            <mxPoint x="700" y="1140" as="targetPoint" />
          </mxGeometry>
        </mxCell>
        <mxCell id="ld1WBiZ3wd1zPpl2oKcN-100" value="&lt;font style=&quot;font-size: 22px;&quot;&gt;Forward write trans&lt;/font&gt;" style="text;html=1;align=center;verticalAlign=middle;resizable=0;points=[];autosize=1;strokeColor=none;fillColor=none;" vertex="1" parent="1">
          <mxGeometry x="245" y="1100" width="210" height="40" as="geometry" />
        </mxCell>
        <mxCell id="ld1WBiZ3wd1zPpl2oKcN-101" value="" style="endArrow=classic;html=1;rounded=0;strokeWidth=2;jumpSize=14;jumpStyle=arc;" edge="1" parent="1">
          <mxGeometry width="50" height="50" relative="1" as="geometry">
            <mxPoint x="700" y="1220" as="sourcePoint" />
            <mxPoint x="230" y="1220" as="targetPoint" />
          </mxGeometry>
        </mxCell>
        <mxCell id="ld1WBiZ3wd1zPpl2oKcN-102" value="&lt;font style=&quot;font-size: 22px;&quot;&gt;Return END_REQ&lt;/font&gt;" style="text;html=1;align=center;verticalAlign=middle;resizable=0;points=[];autosize=1;strokeColor=none;fillColor=none;" vertex="1" parent="1">
          <mxGeometry x="500" y="1183" width="200" height="40" as="geometry" />
        </mxCell>
        <mxCell id="ld1WBiZ3wd1zPpl2oKcN-103" value="" style="endArrow=classic;html=1;rounded=0;strokeWidth=2;" edge="1" parent="1">
          <mxGeometry width="50" height="50" relative="1" as="geometry">
            <mxPoint x="230" y="1220" as="sourcePoint" />
            <mxPoint x="-10" y="1220" as="targetPoint" />
          </mxGeometry>
        </mxCell>
        <mxCell id="ld1WBiZ3wd1zPpl2oKcN-104" value="&lt;font style=&quot;font-size: 22px;&quot;&gt;Return END_REQ&lt;/font&gt;" style="text;html=1;align=center;verticalAlign=middle;resizable=0;points=[];autosize=1;strokeColor=none;fillColor=none;" vertex="1" parent="1">
          <mxGeometry x="20" y="1183" width="200" height="40" as="geometry" />
        </mxCell>
        <mxCell id="ld1WBiZ3wd1zPpl2oKcN-105" value="" style="endArrow=classic;html=1;rounded=0;strokeWidth=2;jumpSize=14;jumpStyle=arc;" edge="1" parent="1">
          <mxGeometry width="50" height="50" relative="1" as="geometry">
            <mxPoint x="-10" y="1300" as="sourcePoint" />
            <mxPoint x="700" y="1300" as="targetPoint" />
          </mxGeometry>
        </mxCell>
        <mxCell id="ld1WBiZ3wd1zPpl2oKcN-106" value="&lt;font style=&quot;font-size: 22px;&quot;&gt;ACK&lt;/font&gt;" style="text;html=1;align=center;verticalAlign=middle;resizable=0;points=[];autosize=1;strokeColor=none;fillColor=none;" vertex="1" parent="1">
          <mxGeometry x="15" y="1263" width="70" height="40" as="geometry" />
        </mxCell>
        <mxCell id="ld1WBiZ3wd1zPpl2oKcN-107" value="&lt;font color=&quot;#ff0000&quot; style=&quot;font-size: 22px;&quot;&gt;Peripheral to peripheral&lt;/font&gt;" style="text;html=1;align=center;verticalAlign=middle;resizable=0;points=[];autosize=1;strokeColor=none;fillColor=none;" vertex="1" parent="1">
          <mxGeometry x="-520" y="830" width="250" height="40" as="geometry" />
        </mxCell>
        <mxCell id="ld1WBiZ3wd1zPpl2oKcN-109" value="" style="rounded=0;whiteSpace=wrap;html=1;fillColor=none;dashed=1;strokeWidth=2;" vertex="1" parent="1">
          <mxGeometry x="920" y="810" width="1300" height="560" as="geometry" />
        </mxCell>
        <mxCell id="ld1WBiZ3wd1zPpl2oKcN-110" style="edgeStyle=orthogonalEdgeStyle;rounded=0;orthogonalLoop=1;jettySize=auto;html=1;strokeWidth=2;" edge="1" parent="1" source="ld1WBiZ3wd1zPpl2oKcN-111">
          <mxGeometry relative="1" as="geometry">
            <mxPoint x="1170" y="1410" as="targetPoint" />
          </mxGeometry>
        </mxCell>
        <mxCell id="ld1WBiZ3wd1zPpl2oKcN-111" value="&lt;font style=&quot;font-size: 22px;&quot;&gt;CPU&lt;/font&gt;" style="rounded=0;whiteSpace=wrap;html=1;strokeWidth=2;" vertex="1" parent="1">
          <mxGeometry x="1110" y="710" width="120" height="60" as="geometry" />
        </mxCell>
        <mxCell id="ld1WBiZ3wd1zPpl2oKcN-112" style="edgeStyle=orthogonalEdgeStyle;rounded=0;orthogonalLoop=1;jettySize=auto;html=1;strokeWidth=2;" edge="1" parent="1" source="ld1WBiZ3wd1zPpl2oKcN-113">
          <mxGeometry relative="1" as="geometry">
            <mxPoint x="1430" y="1410" as="targetPoint" />
          </mxGeometry>
        </mxCell>
        <mxCell id="ld1WBiZ3wd1zPpl2oKcN-113" value="&lt;font style=&quot;font-size: 22px;&quot;&gt;DMAC&lt;/font&gt;" style="rounded=0;whiteSpace=wrap;html=1;strokeWidth=2;" vertex="1" parent="1">
          <mxGeometry x="1370" y="710" width="120" height="60" as="geometry" />
        </mxCell>
        <mxCell id="ld1WBiZ3wd1zPpl2oKcN-114" style="edgeStyle=orthogonalEdgeStyle;rounded=0;orthogonalLoop=1;jettySize=auto;html=1;strokeWidth=2;" edge="1" parent="1" source="ld1WBiZ3wd1zPpl2oKcN-115">
          <mxGeometry relative="1" as="geometry">
            <mxPoint x="1670" y="1410" as="targetPoint" />
          </mxGeometry>
        </mxCell>
        <mxCell id="ld1WBiZ3wd1zPpl2oKcN-115" value="&lt;font style=&quot;font-size: 22px;&quot;&gt;BUS&lt;/font&gt;" style="rounded=0;whiteSpace=wrap;html=1;strokeWidth=2;" vertex="1" parent="1">
          <mxGeometry x="1610" y="710" width="120" height="60" as="geometry" />
        </mxCell>
        <mxCell id="ld1WBiZ3wd1zPpl2oKcN-116" style="edgeStyle=orthogonalEdgeStyle;rounded=0;orthogonalLoop=1;jettySize=auto;html=1;strokeWidth=2;" edge="1" parent="1" source="ld1WBiZ3wd1zPpl2oKcN-117">
          <mxGeometry relative="1" as="geometry">
            <mxPoint x="1910" y="1410" as="targetPoint" />
          </mxGeometry>
        </mxCell>
        <mxCell id="ld1WBiZ3wd1zPpl2oKcN-117" value="&lt;span style=&quot;font-size: 22px;&quot;&gt;Memory&lt;/span&gt;" style="rounded=0;whiteSpace=wrap;html=1;strokeWidth=2;" vertex="1" parent="1">
          <mxGeometry x="1850" y="710" width="120" height="60" as="geometry" />
        </mxCell>
        <mxCell id="ld1WBiZ3wd1zPpl2oKcN-118" style="edgeStyle=orthogonalEdgeStyle;rounded=0;orthogonalLoop=1;jettySize=auto;html=1;strokeWidth=2;" edge="1" parent="1" source="ld1WBiZ3wd1zPpl2oKcN-119">
          <mxGeometry relative="1" as="geometry">
            <mxPoint x="2140" y="1410" as="targetPoint" />
          </mxGeometry>
        </mxCell>
        <mxCell id="ld1WBiZ3wd1zPpl2oKcN-119" value="&lt;span style=&quot;font-size: 22px;&quot;&gt;Memory&lt;/span&gt;" style="rounded=0;whiteSpace=wrap;html=1;strokeWidth=2;" vertex="1" parent="1">
          <mxGeometry x="2080" y="710" width="120" height="60" as="geometry" />
        </mxCell>
        <mxCell id="ld1WBiZ3wd1zPpl2oKcN-120" value="" style="endArrow=classic;html=1;rounded=0;strokeWidth=2;" edge="1" parent="1">
          <mxGeometry width="50" height="50" relative="1" as="geometry">
            <mxPoint x="1170" y="850" as="sourcePoint" />
            <mxPoint x="1430" y="850" as="targetPoint" />
          </mxGeometry>
        </mxCell>
        <mxCell id="ld1WBiZ3wd1zPpl2oKcN-121" value="&lt;font style=&quot;font-size: 22px;&quot;&gt;Setting DMAC&lt;/font&gt;" style="text;html=1;align=center;verticalAlign=middle;resizable=0;points=[];autosize=1;strokeColor=none;fillColor=none;" vertex="1" parent="1">
          <mxGeometry x="1220" y="810" width="160" height="40" as="geometry" />
        </mxCell>
        <mxCell id="ld1WBiZ3wd1zPpl2oKcN-122" value="" style="endArrow=classic;html=1;rounded=0;jumpStyle=arc;strokeWidth=2;jumpSize=14;" edge="1" parent="1">
          <mxGeometry width="50" height="50" relative="1" as="geometry">
            <mxPoint x="2140" y="890" as="sourcePoint" />
            <mxPoint x="1430" y="890" as="targetPoint" />
          </mxGeometry>
        </mxCell>
        <mxCell id="ld1WBiZ3wd1zPpl2oKcN-123" value="&lt;font style=&quot;font-size: 22px;&quot;&gt;Request DMA&lt;/font&gt;" style="text;html=1;align=center;verticalAlign=middle;resizable=0;points=[];autosize=1;strokeColor=none;fillColor=none;" vertex="1" parent="1">
          <mxGeometry x="1950" y="850" width="160" height="40" as="geometry" />
        </mxCell>
        <mxCell id="ld1WBiZ3wd1zPpl2oKcN-124" value="" style="endArrow=classic;html=1;rounded=0;strokeWidth=2;" edge="1" parent="1">
          <mxGeometry width="50" height="50" relative="1" as="geometry">
            <mxPoint x="1430" y="970" as="sourcePoint" />
            <mxPoint x="1670" y="970" as="targetPoint" />
          </mxGeometry>
        </mxCell>
        <mxCell id="ld1WBiZ3wd1zPpl2oKcN-125" value="&lt;font style=&quot;font-size: 22px;&quot;&gt;Request read trans&lt;/font&gt;" style="text;html=1;align=center;verticalAlign=middle;resizable=0;points=[];autosize=1;strokeColor=none;fillColor=none;" vertex="1" parent="1">
          <mxGeometry x="1440" y="930" width="210" height="40" as="geometry" />
        </mxCell>
        <mxCell id="ld1WBiZ3wd1zPpl2oKcN-126" value="" style="endArrow=classic;html=1;rounded=0;strokeWidth=2;" edge="1" parent="1">
          <mxGeometry width="50" height="50" relative="1" as="geometry">
            <mxPoint x="1670" y="970" as="sourcePoint" />
            <mxPoint x="1910" y="970" as="targetPoint" />
          </mxGeometry>
        </mxCell>
        <mxCell id="ld1WBiZ3wd1zPpl2oKcN-127" value="&lt;font style=&quot;font-size: 22px;&quot;&gt;Forward read trans&lt;/font&gt;" style="text;html=1;align=center;verticalAlign=middle;resizable=0;points=[];autosize=1;strokeColor=none;fillColor=none;" vertex="1" parent="1">
          <mxGeometry x="1685" y="930" width="210" height="40" as="geometry" />
        </mxCell>
        <mxCell id="ld1WBiZ3wd1zPpl2oKcN-128" value="" style="endArrow=classic;html=1;rounded=0;strokeWidth=2;" edge="1" parent="1">
          <mxGeometry width="50" height="50" relative="1" as="geometry">
            <mxPoint x="1910" y="1050" as="sourcePoint" />
            <mxPoint x="1670" y="1050" as="targetPoint" />
          </mxGeometry>
        </mxCell>
        <mxCell id="ld1WBiZ3wd1zPpl2oKcN-129" value="&lt;font style=&quot;font-size: 22px;&quot;&gt;Return Data&lt;/font&gt;" style="text;html=1;align=center;verticalAlign=middle;resizable=0;points=[];autosize=1;strokeColor=none;fillColor=none;" vertex="1" parent="1">
          <mxGeometry x="1720" y="1010" width="140" height="40" as="geometry" />
        </mxCell>
        <mxCell id="ld1WBiZ3wd1zPpl2oKcN-130" value="" style="endArrow=classic;html=1;rounded=0;strokeWidth=2;" edge="1" parent="1">
          <mxGeometry width="50" height="50" relative="1" as="geometry">
            <mxPoint x="1670" y="1050" as="sourcePoint" />
            <mxPoint x="1430" y="1050" as="targetPoint" />
          </mxGeometry>
        </mxCell>
        <mxCell id="ld1WBiZ3wd1zPpl2oKcN-131" value="&lt;font style=&quot;font-size: 22px;&quot;&gt;Return Data&lt;/font&gt;" style="text;html=1;align=center;verticalAlign=middle;resizable=0;points=[];autosize=1;strokeColor=none;fillColor=none;" vertex="1" parent="1">
          <mxGeometry x="1480" y="1010" width="140" height="40" as="geometry" />
        </mxCell>
        <mxCell id="ld1WBiZ3wd1zPpl2oKcN-132" value="" style="endArrow=classic;html=1;rounded=0;strokeWidth=2;" edge="1" parent="1">
          <mxGeometry width="50" height="50" relative="1" as="geometry">
            <mxPoint x="1430" y="1130" as="sourcePoint" />
            <mxPoint x="1670" y="1130" as="targetPoint" />
          </mxGeometry>
        </mxCell>
        <mxCell id="ld1WBiZ3wd1zPpl2oKcN-133" value="&lt;font style=&quot;font-size: 22px;&quot;&gt;Request write trans&lt;/font&gt;" style="text;html=1;align=center;verticalAlign=middle;resizable=0;points=[];autosize=1;strokeColor=none;fillColor=none;" vertex="1" parent="1">
          <mxGeometry x="1445" y="1090" width="210" height="40" as="geometry" />
        </mxCell>
        <mxCell id="ld1WBiZ3wd1zPpl2oKcN-134" value="" style="endArrow=classic;html=1;rounded=0;strokeWidth=2;jumpStyle=arc;jumpSize=14;" edge="1" parent="1">
          <mxGeometry width="50" height="50" relative="1" as="geometry">
            <mxPoint x="1670" y="1130" as="sourcePoint" />
            <mxPoint x="2140" y="1130" as="targetPoint" />
          </mxGeometry>
        </mxCell>
        <mxCell id="ld1WBiZ3wd1zPpl2oKcN-135" value="&lt;font style=&quot;font-size: 22px;&quot;&gt;Forward write trans&lt;/font&gt;" style="text;html=1;align=center;verticalAlign=middle;resizable=0;points=[];autosize=1;strokeColor=none;fillColor=none;" vertex="1" parent="1">
          <mxGeometry x="1685" y="1090" width="210" height="40" as="geometry" />
        </mxCell>
        <mxCell id="ld1WBiZ3wd1zPpl2oKcN-136" value="" style="endArrow=classic;html=1;rounded=0;strokeWidth=2;jumpSize=14;jumpStyle=arc;" edge="1" parent="1">
          <mxGeometry width="50" height="50" relative="1" as="geometry">
            <mxPoint x="2140" y="1210" as="sourcePoint" />
            <mxPoint x="1670" y="1210" as="targetPoint" />
          </mxGeometry>
        </mxCell>
        <mxCell id="ld1WBiZ3wd1zPpl2oKcN-137" value="&lt;font style=&quot;font-size: 22px;&quot;&gt;Return END_REQ&lt;/font&gt;" style="text;html=1;align=center;verticalAlign=middle;resizable=0;points=[];autosize=1;strokeColor=none;fillColor=none;" vertex="1" parent="1">
          <mxGeometry x="1940" y="1173" width="200" height="40" as="geometry" />
        </mxCell>
        <mxCell id="ld1WBiZ3wd1zPpl2oKcN-138" value="" style="endArrow=classic;html=1;rounded=0;strokeWidth=2;" edge="1" parent="1">
          <mxGeometry width="50" height="50" relative="1" as="geometry">
            <mxPoint x="1670" y="1210" as="sourcePoint" />
            <mxPoint x="1430" y="1210" as="targetPoint" />
          </mxGeometry>
        </mxCell>
        <mxCell id="ld1WBiZ3wd1zPpl2oKcN-139" value="&lt;font style=&quot;font-size: 22px;&quot;&gt;Return END_REQ&lt;/font&gt;" style="text;html=1;align=center;verticalAlign=middle;resizable=0;points=[];autosize=1;strokeColor=none;fillColor=none;" vertex="1" parent="1">
          <mxGeometry x="1460" y="1173" width="200" height="40" as="geometry" />
        </mxCell>
        <mxCell id="ld1WBiZ3wd1zPpl2oKcN-140" value="" style="endArrow=classic;html=1;rounded=0;strokeWidth=2;jumpSize=14;jumpStyle=arc;" edge="1" parent="1">
          <mxGeometry width="50" height="50" relative="1" as="geometry">
            <mxPoint x="1430" y="1290" as="sourcePoint" />
            <mxPoint x="2140" y="1290" as="targetPoint" />
          </mxGeometry>
        </mxCell>
        <mxCell id="ld1WBiZ3wd1zPpl2oKcN-141" value="&lt;font style=&quot;font-size: 22px;&quot;&gt;ACK&lt;/font&gt;" style="text;html=1;align=center;verticalAlign=middle;resizable=0;points=[];autosize=1;strokeColor=none;fillColor=none;" vertex="1" parent="1">
          <mxGeometry x="1455" y="1253" width="70" height="40" as="geometry" />
        </mxCell>
        <mxCell id="ld1WBiZ3wd1zPpl2oKcN-142" value="&lt;font color=&quot;#ff0000&quot; style=&quot;font-size: 22px;&quot;&gt;Memory to memory&lt;/font&gt;" style="text;html=1;align=center;verticalAlign=middle;resizable=0;points=[];autosize=1;strokeColor=none;fillColor=none;" vertex="1" parent="1">
          <mxGeometry x="940" y="820" width="210" height="40" as="geometry" />
        </mxCell>
      </root>
    </mxGraphModel>
  </diagram>
  <diagram id="wAwkPjKKL8phws_cWMuL" name="DMAC architecture">
    <mxGraphModel dx="1687" dy="1384" grid="1" gridSize="10" guides="1" tooltips="1" connect="1" arrows="1" fold="1" page="0" pageScale="1" pageWidth="850" pageHeight="1100" math="0" shadow="0">
      <root>
        <mxCell id="0" />
        <mxCell id="1" parent="0" />
        <mxCell id="YiEYAV5Zr6Whrd0dACQv-55" value="" style="rounded=0;whiteSpace=wrap;html=1;fillColor=#eeeeee;strokeColor=#36393d;strokeWidth=2;" vertex="1" parent="1">
          <mxGeometry x="230" y="-130" width="800" height="740" as="geometry" />
        </mxCell>
        <mxCell id="YiEYAV5Zr6Whrd0dACQv-7" style="edgeStyle=orthogonalEdgeStyle;rounded=0;orthogonalLoop=1;jettySize=auto;html=1;entryX=0.5;entryY=1;entryDx=0;entryDy=0;startArrow=classic;startFill=1;dashed=1;strokeWidth=2;" edge="1" parent="1" source="YiEYAV5Zr6Whrd0dACQv-2" target="YiEYAV5Zr6Whrd0dACQv-3">
          <mxGeometry relative="1" as="geometry" />
        </mxCell>
        <mxCell id="YiEYAV5Zr6Whrd0dACQv-2" value="&lt;font style=&quot;font-size: 16px;&quot;&gt;Register Interface&lt;/font&gt;" style="rounded=0;whiteSpace=wrap;html=1;direction=south;strokeWidth=2;" vertex="1" parent="1">
          <mxGeometry x="440" y="-80" width="90" height="120" as="geometry" />
        </mxCell>
        <mxCell id="YiEYAV5Zr6Whrd0dACQv-28" style="edgeStyle=orthogonalEdgeStyle;rounded=0;orthogonalLoop=1;jettySize=auto;html=1;entryX=0.5;entryY=0;entryDx=0;entryDy=0;dashed=1;strokeWidth=2;" edge="1" parent="1" source="YiEYAV5Zr6Whrd0dACQv-3" target="YiEYAV5Zr6Whrd0dACQv-5">
          <mxGeometry relative="1" as="geometry" />
        </mxCell>
        <mxCell id="YiEYAV5Zr6Whrd0dACQv-3" value="&lt;font style=&quot;font-size: 18px;&quot;&gt;DMA Register&lt;/font&gt;" style="rounded=0;whiteSpace=wrap;html=1;direction=south;strokeWidth=2;" vertex="1" parent="1">
          <mxGeometry x="675" y="-80" width="90" height="120" as="geometry" />
        </mxCell>
        <mxCell id="YiEYAV5Zr6Whrd0dACQv-30" style="edgeStyle=orthogonalEdgeStyle;rounded=0;orthogonalLoop=1;jettySize=auto;html=1;entryX=0;entryY=0.5;entryDx=0;entryDy=0;dashed=1;startArrow=classic;startFill=1;strokeWidth=2;" edge="1" parent="1" source="YiEYAV5Zr6Whrd0dACQv-5" target="YiEYAV5Zr6Whrd0dACQv-29">
          <mxGeometry relative="1" as="geometry" />
        </mxCell>
        <mxCell id="YiEYAV5Zr6Whrd0dACQv-32" style="edgeStyle=orthogonalEdgeStyle;rounded=0;orthogonalLoop=1;jettySize=auto;html=1;strokeWidth=2;dashed=1;" edge="1" parent="1" source="YiEYAV5Zr6Whrd0dACQv-5" target="YiEYAV5Zr6Whrd0dACQv-31">
          <mxGeometry relative="1" as="geometry" />
        </mxCell>
        <mxCell id="YiEYAV5Zr6Whrd0dACQv-47" style="edgeStyle=orthogonalEdgeStyle;rounded=0;orthogonalLoop=1;jettySize=auto;html=1;entryX=1;entryY=0.5;entryDx=0;entryDy=0;startArrow=classic;startFill=1;strokeWidth=2;dashed=1;" edge="1" parent="1" source="YiEYAV5Zr6Whrd0dACQv-5" target="YiEYAV5Zr6Whrd0dACQv-46">
          <mxGeometry relative="1" as="geometry">
            <Array as="points">
              <mxPoint x="720" y="360" />
              <mxPoint x="533" y="360" />
              <mxPoint x="533" y="520" />
            </Array>
          </mxGeometry>
        </mxCell>
        <mxCell id="YiEYAV5Zr6Whrd0dACQv-5" value="&lt;font style=&quot;font-size: 18px;&quot;&gt;DMA control process&lt;/font&gt;" style="rounded=0;whiteSpace=wrap;html=1;strokeWidth=2;" vertex="1" parent="1">
          <mxGeometry x="660" y="230" width="120" height="60" as="geometry" />
        </mxCell>
        <mxCell id="YiEYAV5Zr6Whrd0dACQv-8" style="edgeStyle=orthogonalEdgeStyle;rounded=0;orthogonalLoop=1;jettySize=auto;html=1;entryX=0;entryY=0.5;entryDx=0;entryDy=0;startArrow=classic;startFill=1;dashed=1;strokeWidth=2;" edge="1" parent="1" source="YiEYAV5Zr6Whrd0dACQv-6" target="YiEYAV5Zr6Whrd0dACQv-5">
          <mxGeometry relative="1" as="geometry" />
        </mxCell>
        <mxCell id="YiEYAV5Zr6Whrd0dACQv-6" value="&lt;font style=&quot;font-size: 18px;&quot;&gt;Priority arbiter&amp;nbsp;&lt;/font&gt;" style="rounded=0;whiteSpace=wrap;html=1;strokeWidth=2;" vertex="1" parent="1">
          <mxGeometry x="480" y="230" width="120" height="60" as="geometry" />
        </mxCell>
        <mxCell id="YiEYAV5Zr6Whrd0dACQv-25" style="edgeStyle=orthogonalEdgeStyle;rounded=0;orthogonalLoop=1;jettySize=auto;html=1;entryX=0;entryY=0.5;entryDx=0;entryDy=0;startArrow=none;startFill=0;strokeWidth=2;dashed=1;" edge="1" parent="1" source="YiEYAV5Zr6Whrd0dACQv-13" target="YiEYAV5Zr6Whrd0dACQv-6">
          <mxGeometry relative="1" as="geometry" />
        </mxCell>
        <mxCell id="YiEYAV5Zr6Whrd0dACQv-13" value="" style="rounded=0;whiteSpace=wrap;html=1;strokeWidth=2;" vertex="1" parent="1">
          <mxGeometry x="290" y="100" width="120" height="320" as="geometry" />
        </mxCell>
        <mxCell id="YiEYAV5Zr6Whrd0dACQv-14" value="&lt;font style=&quot;font-size: 18px;&quot;&gt;Ch0&lt;/font&gt;" style="rounded=0;whiteSpace=wrap;html=1;strokeWidth=2;" vertex="1" parent="1">
          <mxGeometry x="325" y="160" width="50" height="20" as="geometry" />
        </mxCell>
        <mxCell id="YiEYAV5Zr6Whrd0dACQv-15" value="&lt;font style=&quot;font-size: 18px;&quot;&gt;Ch1&lt;/font&gt;" style="rounded=0;whiteSpace=wrap;html=1;strokeWidth=2;" vertex="1" parent="1">
          <mxGeometry x="325" y="190" width="50" height="20" as="geometry" />
        </mxCell>
        <mxCell id="YiEYAV5Zr6Whrd0dACQv-16" value="&lt;font style=&quot;font-size: 18px;&quot;&gt;Ch2&lt;/font&gt;" style="rounded=0;whiteSpace=wrap;html=1;strokeWidth=2;" vertex="1" parent="1">
          <mxGeometry x="325" y="220" width="50" height="20" as="geometry" />
        </mxCell>
        <mxCell id="YiEYAV5Zr6Whrd0dACQv-17" value="&lt;font style=&quot;font-size: 18px;&quot;&gt;Ch3&lt;/font&gt;" style="rounded=0;whiteSpace=wrap;html=1;strokeWidth=2;" vertex="1" parent="1">
          <mxGeometry x="325" y="250" width="50" height="20" as="geometry" />
        </mxCell>
        <mxCell id="YiEYAV5Zr6Whrd0dACQv-18" value="&lt;font style=&quot;font-size: 18px;&quot;&gt;Ch4&lt;/font&gt;" style="rounded=0;whiteSpace=wrap;html=1;strokeWidth=2;" vertex="1" parent="1">
          <mxGeometry x="325" y="280" width="50" height="20" as="geometry" />
        </mxCell>
        <mxCell id="YiEYAV5Zr6Whrd0dACQv-19" value="&lt;font style=&quot;font-size: 18px;&quot;&gt;Ch5&lt;/font&gt;" style="rounded=0;whiteSpace=wrap;html=1;strokeWidth=2;" vertex="1" parent="1">
          <mxGeometry x="325" y="310" width="50" height="20" as="geometry" />
        </mxCell>
        <mxCell id="YiEYAV5Zr6Whrd0dACQv-21" value="&lt;font style=&quot;font-size: 18px;&quot;&gt;Ch255&lt;/font&gt;" style="rounded=0;whiteSpace=wrap;html=1;strokeWidth=2;" vertex="1" parent="1">
          <mxGeometry x="325" y="370" width="55" height="20" as="geometry" />
        </mxCell>
        <mxCell id="YiEYAV5Zr6Whrd0dACQv-22" value="&lt;font style=&quot;font-size: 18px;&quot;&gt;...&lt;/font&gt;" style="text;html=1;align=center;verticalAlign=middle;resizable=0;points=[];autosize=1;strokeColor=none;fillColor=none;strokeWidth=2;" vertex="1" parent="1">
          <mxGeometry x="330" y="330" width="40" height="40" as="geometry" />
        </mxCell>
        <mxCell id="YiEYAV5Zr6Whrd0dACQv-23" value="&lt;font style=&quot;font-size: 16px;&quot;&gt;DMA channels&lt;/font&gt;" style="text;html=1;align=center;verticalAlign=middle;resizable=0;points=[];autosize=1;strokeColor=none;fillColor=none;" vertex="1" parent="1">
          <mxGeometry x="285" y="110" width="130" height="30" as="geometry" />
        </mxCell>
        <mxCell id="YiEYAV5Zr6Whrd0dACQv-29" value="&lt;font style=&quot;font-size: 18px;&quot;&gt;Master Interface&lt;/font&gt;" style="rounded=0;whiteSpace=wrap;html=1;strokeWidth=2;" vertex="1" parent="1">
          <mxGeometry x="840" y="195" width="80" height="130" as="geometry" />
        </mxCell>
        <mxCell id="YiEYAV5Zr6Whrd0dACQv-56" style="edgeStyle=orthogonalEdgeStyle;rounded=0;orthogonalLoop=1;jettySize=auto;html=1;strokeWidth=2;" edge="1" parent="1" source="YiEYAV5Zr6Whrd0dACQv-31">
          <mxGeometry relative="1" as="geometry">
            <mxPoint x="1180" y="450" as="targetPoint" />
          </mxGeometry>
        </mxCell>
        <mxCell id="YiEYAV5Zr6Whrd0dACQv-31" value="&lt;font style=&quot;font-size: 16px;&quot;&gt;Interrupt&lt;/font&gt;" style="rounded=0;whiteSpace=wrap;html=1;strokeWidth=2;" vertex="1" parent="1">
          <mxGeometry x="660" y="420" width="120" height="60" as="geometry" />
        </mxCell>
        <mxCell id="YiEYAV5Zr6Whrd0dACQv-39" style="edgeStyle=orthogonalEdgeStyle;rounded=0;orthogonalLoop=1;jettySize=auto;html=1;entryX=0.5;entryY=1;entryDx=0;entryDy=0;dashed=1;startArrow=classic;startFill=1;shape=flexArrow;strokeWidth=2;" edge="1" parent="1" source="YiEYAV5Zr6Whrd0dACQv-36" target="YiEYAV5Zr6Whrd0dACQv-2">
          <mxGeometry relative="1" as="geometry" />
        </mxCell>
        <mxCell id="YiEYAV5Zr6Whrd0dACQv-36" value="" style="whiteSpace=wrap;html=1;aspect=fixed;fillColor=#f5f5f5;gradientColor=#b3b3b3;strokeColor=#666666;" vertex="1" parent="1">
          <mxGeometry x="180" y="-45" width="50" height="50" as="geometry" />
        </mxCell>
        <mxCell id="YiEYAV5Zr6Whrd0dACQv-37" value="" style="endArrow=none;html=1;rounded=0;entryX=0;entryY=0;entryDx=0;entryDy=0;exitX=1;exitY=1;exitDx=0;exitDy=0;fillColor=#f5f5f5;gradientColor=#b3b3b3;strokeColor=#666666;" edge="1" source="YiEYAV5Zr6Whrd0dACQv-36" target="YiEYAV5Zr6Whrd0dACQv-36" parent="1">
          <mxGeometry width="50" height="50" relative="1" as="geometry">
            <mxPoint x="256" y="36" as="sourcePoint" />
            <mxPoint x="306" y="-14" as="targetPoint" />
          </mxGeometry>
        </mxCell>
        <mxCell id="YiEYAV5Zr6Whrd0dACQv-38" value="" style="endArrow=none;html=1;rounded=0;exitX=0;exitY=1;exitDx=0;exitDy=0;entryX=1;entryY=0;entryDx=0;entryDy=0;fillColor=#f5f5f5;gradientColor=#b3b3b3;strokeColor=#666666;" edge="1" source="YiEYAV5Zr6Whrd0dACQv-36" target="YiEYAV5Zr6Whrd0dACQv-36" parent="1">
          <mxGeometry width="50" height="50" relative="1" as="geometry">
            <mxPoint x="248" y="28" as="sourcePoint" />
            <mxPoint x="298" y="-22" as="targetPoint" />
          </mxGeometry>
        </mxCell>
        <mxCell id="YiEYAV5Zr6Whrd0dACQv-45" style="edgeStyle=orthogonalEdgeStyle;rounded=0;orthogonalLoop=1;jettySize=auto;html=1;startArrow=classic;startFill=1;dashed=1;shape=flexArrow;strokeWidth=2;" edge="1" parent="1" source="YiEYAV5Zr6Whrd0dACQv-41" target="YiEYAV5Zr6Whrd0dACQv-29">
          <mxGeometry relative="1" as="geometry" />
        </mxCell>
        <mxCell id="YiEYAV5Zr6Whrd0dACQv-41" value="" style="whiteSpace=wrap;html=1;aspect=fixed;fillColor=#ffcd28;gradientColor=#ffa500;strokeColor=#d79b00;" vertex="1" parent="1">
          <mxGeometry x="1030" y="230" width="60" height="60" as="geometry" />
        </mxCell>
        <mxCell id="YiEYAV5Zr6Whrd0dACQv-42" value="" style="endArrow=none;html=1;rounded=0;entryX=0.5;entryY=0;entryDx=0;entryDy=0;exitX=0.5;exitY=1;exitDx=0;exitDy=0;fillColor=#ffcd28;gradientColor=#ffa500;strokeColor=#d79b00;" edge="1" source="YiEYAV5Zr6Whrd0dACQv-41" target="YiEYAV5Zr6Whrd0dACQv-41" parent="1">
          <mxGeometry width="50" height="50" relative="1" as="geometry">
            <mxPoint x="1046" y="278" as="sourcePoint" />
            <mxPoint x="1096" y="228" as="targetPoint" />
          </mxGeometry>
        </mxCell>
        <mxCell id="YiEYAV5Zr6Whrd0dACQv-43" value="" style="endArrow=none;html=1;rounded=0;exitX=0;exitY=0.5;exitDx=0;exitDy=0;entryX=1;entryY=0.5;entryDx=0;entryDy=0;fillColor=#ffcd28;gradientColor=#ffa500;strokeColor=#d79b00;" edge="1" source="YiEYAV5Zr6Whrd0dACQv-41" target="YiEYAV5Zr6Whrd0dACQv-41" parent="1">
          <mxGeometry width="50" height="50" relative="1" as="geometry">
            <mxPoint x="1046" y="278" as="sourcePoint" />
            <mxPoint x="1096" y="228" as="targetPoint" />
          </mxGeometry>
        </mxCell>
        <mxCell id="YiEYAV5Zr6Whrd0dACQv-48" style="edgeStyle=orthogonalEdgeStyle;rounded=0;orthogonalLoop=1;jettySize=auto;html=1;strokeWidth=2;" edge="1" parent="1" source="YiEYAV5Zr6Whrd0dACQv-46">
          <mxGeometry relative="1" as="geometry">
            <mxPoint x="110" y="500" as="targetPoint" />
            <Array as="points">
              <mxPoint x="120" y="500" />
            </Array>
          </mxGeometry>
        </mxCell>
        <mxCell id="YiEYAV5Zr6Whrd0dACQv-49" style="edgeStyle=orthogonalEdgeStyle;rounded=0;orthogonalLoop=1;jettySize=auto;html=1;strokeWidth=2;startArrow=classic;startFill=1;endArrow=none;endFill=0;" edge="1" parent="1" source="YiEYAV5Zr6Whrd0dACQv-46">
          <mxGeometry relative="1" as="geometry">
            <mxPoint x="110" y="540" as="targetPoint" />
            <Array as="points">
              <mxPoint x="160" y="540" />
              <mxPoint x="160" y="540" />
            </Array>
          </mxGeometry>
        </mxCell>
        <mxCell id="YiEYAV5Zr6Whrd0dACQv-53" style="edgeStyle=orthogonalEdgeStyle;rounded=0;orthogonalLoop=1;jettySize=auto;html=1;entryX=0.5;entryY=1;entryDx=0;entryDy=0;dashed=1;strokeWidth=2;startArrow=classic;startFill=1;" edge="1" parent="1" source="YiEYAV5Zr6Whrd0dACQv-46" target="YiEYAV5Zr6Whrd0dACQv-13">
          <mxGeometry relative="1" as="geometry">
            <Array as="points">
              <mxPoint x="350" y="470" />
              <mxPoint x="350" y="470" />
            </Array>
          </mxGeometry>
        </mxCell>
        <mxCell id="YiEYAV5Zr6Whrd0dACQv-46" value="&lt;font style=&quot;font-size: 16px;&quot;&gt;DMA Request &amp;amp; ACK&lt;/font&gt;" style="rounded=0;whiteSpace=wrap;html=1;strokeWidth=2;" vertex="1" parent="1">
          <mxGeometry x="285" y="490" width="120" height="60" as="geometry" />
        </mxCell>
        <mxCell id="YiEYAV5Zr6Whrd0dACQv-51" value="&lt;font style=&quot;font-size: 16px;&quot;&gt;DMA_ACK [0:255]&lt;/font&gt;" style="text;html=1;align=center;verticalAlign=middle;resizable=0;points=[];autosize=1;strokeColor=none;fillColor=none;" vertex="1" parent="1">
          <mxGeometry x="80" y="468" width="150" height="30" as="geometry" />
        </mxCell>
        <mxCell id="YiEYAV5Zr6Whrd0dACQv-52" value="&lt;font style=&quot;font-size: 16px;&quot;&gt;DMA_Req [0:255]&lt;/font&gt;" style="text;html=1;align=center;verticalAlign=middle;resizable=0;points=[];autosize=1;strokeColor=none;fillColor=none;" vertex="1" parent="1">
          <mxGeometry x="80" y="510" width="150" height="30" as="geometry" />
        </mxCell>
        <mxCell id="YiEYAV5Zr6Whrd0dACQv-57" value="&lt;font style=&quot;font-size: 16px;&quot;&gt;Interrupt signals [0:255]&lt;/font&gt;" style="text;html=1;align=center;verticalAlign=middle;resizable=0;points=[];autosize=1;strokeColor=none;fillColor=none;" vertex="1" parent="1">
          <mxGeometry x="1020" y="410" width="190" height="30" as="geometry" />
        </mxCell>
        <mxCell id="YiEYAV5Zr6Whrd0dACQv-58" value="&lt;font style=&quot;font-size: 16px;&quot;&gt;Initiator socket&lt;/font&gt;" style="text;html=1;align=center;verticalAlign=middle;resizable=0;points=[];autosize=1;strokeColor=none;fillColor=none;" vertex="1" parent="1">
          <mxGeometry x="1030" y="195" width="130" height="30" as="geometry" />
        </mxCell>
        <mxCell id="YiEYAV5Zr6Whrd0dACQv-59" value="&lt;font style=&quot;font-size: 16px;&quot;&gt;Target socket&lt;/font&gt;" style="text;html=1;align=center;verticalAlign=middle;resizable=0;points=[];autosize=1;strokeColor=none;fillColor=none;" vertex="1" parent="1">
          <mxGeometry x="105" y="-80" width="120" height="30" as="geometry" />
        </mxCell>
      </root>
    </mxGraphModel>
  </diagram>
</mxfile>
